<?xml version="1.0" encoding="utf-8" standalone="no"?>
<!DOCTYPE svg PUBLIC "-//W3C//DTD SVG 1.1//EN"
  "http://www.w3.org/Graphics/SVG/1.1/DTD/svg11.dtd">
<svg height="403.047975pt" version="1.1" viewBox="0 0 623.48925 403.047975" width="623.48925pt" xmlns="http://www.w3.org/2000/svg" xmlns:xlink="http://www.w3.org/1999/xlink">
 <metadata>
  <rdf:RDF xmlns:cc="http://creativecommons.org/ns#" xmlns:dc="http://purl.org/dc/elements/1.1/" xmlns:rdf="http://www.w3.org/1999/02/22-rdf-syntax-ns#">
   <cc:Work>
    <dc:type rdf:resource="http://purl.org/dc/dcmitype/StillImage"/>
    <dc:date>2021-08-02T12:04:44.024724</dc:date>
    <dc:format>image/svg+xml</dc:format>
    <dc:creator>
     <cc:Agent>
      <dc:title>Matplotlib v3.4.2, https://matplotlib.org/</dc:title>
     </cc:Agent>
    </dc:creator>
   </cc:Work>
  </rdf:RDF>
 </metadata>
 <defs>
  <style type="text/css">*{stroke-linecap:butt;stroke-linejoin:round;}</style>
 </defs>
 <g id="figure_1">
  <g id="patch_1">
   <path d="M 0 403.047975 
L 623.48925 403.047975 
L 623.48925 0 
L 0 0 
z
" style="fill:#ffffff;"/>
  </g>
  <g id="axes_1">
   <g id="patch_2">
    <path d="M 43.78125 365.491725 
L 616.28925 365.491725 
L 616.28925 22.318125 
L 43.78125 22.318125 
z
" style="fill:#ffffff;"/>
   </g>
   <g id="matplotlib.axis_1">
    <g id="xtick_1">
     <g id="line2d_1">
      <path clip-path="url(#p92c9beac1f)" d="M 78.392041 365.491725 
L 78.392041 22.318125 
" style="fill:none;stroke:#b0b0b0;stroke-linecap:square;stroke-width:0.8;"/>
     </g>
     <g id="line2d_2">
      <defs>
       <path d="M 0 0 
L 0 3.5 
" id="m3968e9f894" style="stroke:#000000;stroke-width:0.8;"/>
      </defs>
      <g>
       <use style="stroke:#000000;stroke-width:0.8;" x="78.392041" xlink:href="#m3968e9f894" y="365.491725"/>
      </g>
     </g>
     <g id="text_1">
      <!-- 76.00 -->
      <g transform="translate(64.077978 380.090162)scale(0.1 -0.1)">
       <defs>
        <path d="M 525 4666 
L 3525 4666 
L 3525 4397 
L 1831 0 
L 1172 0 
L 2766 4134 
L 525 4134 
L 525 4666 
z
" id="DejaVuSans-37" transform="scale(0.015625)"/>
        <path d="M 2113 2584 
Q 1688 2584 1439 2293 
Q 1191 2003 1191 1497 
Q 1191 994 1439 701 
Q 1688 409 2113 409 
Q 2538 409 2786 701 
Q 3034 994 3034 1497 
Q 3034 2003 2786 2293 
Q 2538 2584 2113 2584 
z
M 3366 4563 
L 3366 3988 
Q 3128 4100 2886 4159 
Q 2644 4219 2406 4219 
Q 1781 4219 1451 3797 
Q 1122 3375 1075 2522 
Q 1259 2794 1537 2939 
Q 1816 3084 2150 3084 
Q 2853 3084 3261 2657 
Q 3669 2231 3669 1497 
Q 3669 778 3244 343 
Q 2819 -91 2113 -91 
Q 1303 -91 875 529 
Q 447 1150 447 2328 
Q 447 3434 972 4092 
Q 1497 4750 2381 4750 
Q 2619 4750 2861 4703 
Q 3103 4656 3366 4563 
z
" id="DejaVuSans-36" transform="scale(0.015625)"/>
        <path d="M 684 794 
L 1344 794 
L 1344 0 
L 684 0 
L 684 794 
z
" id="DejaVuSans-2e" transform="scale(0.015625)"/>
        <path d="M 2034 4250 
Q 1547 4250 1301 3770 
Q 1056 3291 1056 2328 
Q 1056 1369 1301 889 
Q 1547 409 2034 409 
Q 2525 409 2770 889 
Q 3016 1369 3016 2328 
Q 3016 3291 2770 3770 
Q 2525 4250 2034 4250 
z
M 2034 4750 
Q 2819 4750 3233 4129 
Q 3647 3509 3647 2328 
Q 3647 1150 3233 529 
Q 2819 -91 2034 -91 
Q 1250 -91 836 529 
Q 422 1150 422 2328 
Q 422 3509 836 4129 
Q 1250 4750 2034 4750 
z
" id="DejaVuSans-30" transform="scale(0.015625)"/>
       </defs>
       <use xlink:href="#DejaVuSans-37"/>
       <use x="63.623047" xlink:href="#DejaVuSans-36"/>
       <use x="127.246094" xlink:href="#DejaVuSans-2e"/>
       <use x="159.033203" xlink:href="#DejaVuSans-30"/>
       <use x="222.65625" xlink:href="#DejaVuSans-30"/>
      </g>
     </g>
    </g>
    <g id="xtick_2">
     <g id="line2d_3">
      <path clip-path="url(#p92c9beac1f)" d="M 153.036797 365.491725 
L 153.036797 22.318125 
" style="fill:none;stroke:#b0b0b0;stroke-linecap:square;stroke-width:0.8;"/>
     </g>
     <g id="line2d_4">
      <g>
       <use style="stroke:#000000;stroke-width:0.8;" x="153.036797" xlink:href="#m3968e9f894" y="365.491725"/>
      </g>
     </g>
     <g id="text_2">
      <!-- 76.25 -->
      <g transform="translate(138.722735 380.090162)scale(0.1 -0.1)">
       <defs>
        <path d="M 1228 531 
L 3431 531 
L 3431 0 
L 469 0 
L 469 531 
Q 828 903 1448 1529 
Q 2069 2156 2228 2338 
Q 2531 2678 2651 2914 
Q 2772 3150 2772 3378 
Q 2772 3750 2511 3984 
Q 2250 4219 1831 4219 
Q 1534 4219 1204 4116 
Q 875 4013 500 3803 
L 500 4441 
Q 881 4594 1212 4672 
Q 1544 4750 1819 4750 
Q 2544 4750 2975 4387 
Q 3406 4025 3406 3419 
Q 3406 3131 3298 2873 
Q 3191 2616 2906 2266 
Q 2828 2175 2409 1742 
Q 1991 1309 1228 531 
z
" id="DejaVuSans-32" transform="scale(0.015625)"/>
        <path d="M 691 4666 
L 3169 4666 
L 3169 4134 
L 1269 4134 
L 1269 2991 
Q 1406 3038 1543 3061 
Q 1681 3084 1819 3084 
Q 2600 3084 3056 2656 
Q 3513 2228 3513 1497 
Q 3513 744 3044 326 
Q 2575 -91 1722 -91 
Q 1428 -91 1123 -41 
Q 819 9 494 109 
L 494 744 
Q 775 591 1075 516 
Q 1375 441 1709 441 
Q 2250 441 2565 725 
Q 2881 1009 2881 1497 
Q 2881 1984 2565 2268 
Q 2250 2553 1709 2553 
Q 1456 2553 1204 2497 
Q 953 2441 691 2322 
L 691 4666 
z
" id="DejaVuSans-35" transform="scale(0.015625)"/>
       </defs>
       <use xlink:href="#DejaVuSans-37"/>
       <use x="63.623047" xlink:href="#DejaVuSans-36"/>
       <use x="127.246094" xlink:href="#DejaVuSans-2e"/>
       <use x="159.033203" xlink:href="#DejaVuSans-32"/>
       <use x="222.65625" xlink:href="#DejaVuSans-35"/>
      </g>
     </g>
    </g>
    <g id="xtick_3">
     <g id="line2d_5">
      <path clip-path="url(#p92c9beac1f)" d="M 227.681554 365.491725 
L 227.681554 22.318125 
" style="fill:none;stroke:#b0b0b0;stroke-linecap:square;stroke-width:0.8;"/>
     </g>
     <g id="line2d_6">
      <g>
       <use style="stroke:#000000;stroke-width:0.8;" x="227.681554" xlink:href="#m3968e9f894" y="365.491725"/>
      </g>
     </g>
     <g id="text_3">
      <!-- 76.50 -->
      <g transform="translate(213.367491 380.090162)scale(0.1 -0.1)">
       <use xlink:href="#DejaVuSans-37"/>
       <use x="63.623047" xlink:href="#DejaVuSans-36"/>
       <use x="127.246094" xlink:href="#DejaVuSans-2e"/>
       <use x="159.033203" xlink:href="#DejaVuSans-35"/>
       <use x="222.65625" xlink:href="#DejaVuSans-30"/>
      </g>
     </g>
    </g>
    <g id="xtick_4">
     <g id="line2d_7">
      <path clip-path="url(#p92c9beac1f)" d="M 302.32631 365.491725 
L 302.32631 22.318125 
" style="fill:none;stroke:#b0b0b0;stroke-linecap:square;stroke-width:0.8;"/>
     </g>
     <g id="line2d_8">
      <g>
       <use style="stroke:#000000;stroke-width:0.8;" x="302.32631" xlink:href="#m3968e9f894" y="365.491725"/>
      </g>
     </g>
     <g id="text_4">
      <!-- 76.75 -->
      <g transform="translate(288.012248 380.090162)scale(0.1 -0.1)">
       <use xlink:href="#DejaVuSans-37"/>
       <use x="63.623047" xlink:href="#DejaVuSans-36"/>
       <use x="127.246094" xlink:href="#DejaVuSans-2e"/>
       <use x="159.033203" xlink:href="#DejaVuSans-37"/>
       <use x="222.65625" xlink:href="#DejaVuSans-35"/>
      </g>
     </g>
    </g>
    <g id="xtick_5">
     <g id="line2d_9">
      <path clip-path="url(#p92c9beac1f)" d="M 376.971067 365.491725 
L 376.971067 22.318125 
" style="fill:none;stroke:#b0b0b0;stroke-linecap:square;stroke-width:0.8;"/>
     </g>
     <g id="line2d_10">
      <g>
       <use style="stroke:#000000;stroke-width:0.8;" x="376.971067" xlink:href="#m3968e9f894" y="365.491725"/>
      </g>
     </g>
     <g id="text_5">
      <!-- 77.00 -->
      <g transform="translate(362.657004 380.090162)scale(0.1 -0.1)">
       <use xlink:href="#DejaVuSans-37"/>
       <use x="63.623047" xlink:href="#DejaVuSans-37"/>
       <use x="127.246094" xlink:href="#DejaVuSans-2e"/>
       <use x="159.033203" xlink:href="#DejaVuSans-30"/>
       <use x="222.65625" xlink:href="#DejaVuSans-30"/>
      </g>
     </g>
    </g>
    <g id="xtick_6">
     <g id="line2d_11">
      <path clip-path="url(#p92c9beac1f)" d="M 451.615823 365.491725 
L 451.615823 22.318125 
" style="fill:none;stroke:#b0b0b0;stroke-linecap:square;stroke-width:0.8;"/>
     </g>
     <g id="line2d_12">
      <g>
       <use style="stroke:#000000;stroke-width:0.8;" x="451.615823" xlink:href="#m3968e9f894" y="365.491725"/>
      </g>
     </g>
     <g id="text_6">
      <!-- 77.25 -->
      <g transform="translate(437.301761 380.090162)scale(0.1 -0.1)">
       <use xlink:href="#DejaVuSans-37"/>
       <use x="63.623047" xlink:href="#DejaVuSans-37"/>
       <use x="127.246094" xlink:href="#DejaVuSans-2e"/>
       <use x="159.033203" xlink:href="#DejaVuSans-32"/>
       <use x="222.65625" xlink:href="#DejaVuSans-35"/>
      </g>
     </g>
    </g>
    <g id="xtick_7">
     <g id="line2d_13">
      <path clip-path="url(#p92c9beac1f)" d="M 526.26058 365.491725 
L 526.26058 22.318125 
" style="fill:none;stroke:#b0b0b0;stroke-linecap:square;stroke-width:0.8;"/>
     </g>
     <g id="line2d_14">
      <g>
       <use style="stroke:#000000;stroke-width:0.8;" x="526.26058" xlink:href="#m3968e9f894" y="365.491725"/>
      </g>
     </g>
     <g id="text_7">
      <!-- 77.50 -->
      <g transform="translate(511.946517 380.090162)scale(0.1 -0.1)">
       <use xlink:href="#DejaVuSans-37"/>
       <use x="63.623047" xlink:href="#DejaVuSans-37"/>
       <use x="127.246094" xlink:href="#DejaVuSans-2e"/>
       <use x="159.033203" xlink:href="#DejaVuSans-35"/>
       <use x="222.65625" xlink:href="#DejaVuSans-30"/>
      </g>
     </g>
    </g>
    <g id="xtick_8">
     <g id="line2d_15">
      <path clip-path="url(#p92c9beac1f)" d="M 600.905336 365.491725 
L 600.905336 22.318125 
" style="fill:none;stroke:#b0b0b0;stroke-linecap:square;stroke-width:0.8;"/>
     </g>
     <g id="line2d_16">
      <g>
       <use style="stroke:#000000;stroke-width:0.8;" x="600.905336" xlink:href="#m3968e9f894" y="365.491725"/>
      </g>
     </g>
     <g id="text_8">
      <!-- 77.75 -->
      <g transform="translate(586.591273 380.090162)scale(0.1 -0.1)">
       <use xlink:href="#DejaVuSans-37"/>
       <use x="63.623047" xlink:href="#DejaVuSans-37"/>
       <use x="127.246094" xlink:href="#DejaVuSans-2e"/>
       <use x="159.033203" xlink:href="#DejaVuSans-37"/>
       <use x="222.65625" xlink:href="#DejaVuSans-35"/>
      </g>
     </g>
    </g>
    <g id="text_9">
     <!-- CMRR/dB -->
     <g transform="translate(306.992281 393.768287)scale(0.1 -0.1)">
      <defs>
       <path d="M 4122 4306 
L 4122 3641 
Q 3803 3938 3442 4084 
Q 3081 4231 2675 4231 
Q 1875 4231 1450 3742 
Q 1025 3253 1025 2328 
Q 1025 1406 1450 917 
Q 1875 428 2675 428 
Q 3081 428 3442 575 
Q 3803 722 4122 1019 
L 4122 359 
Q 3791 134 3420 21 
Q 3050 -91 2638 -91 
Q 1578 -91 968 557 
Q 359 1206 359 2328 
Q 359 3453 968 4101 
Q 1578 4750 2638 4750 
Q 3056 4750 3426 4639 
Q 3797 4528 4122 4306 
z
" id="DejaVuSans-43" transform="scale(0.015625)"/>
       <path d="M 628 4666 
L 1569 4666 
L 2759 1491 
L 3956 4666 
L 4897 4666 
L 4897 0 
L 4281 0 
L 4281 4097 
L 3078 897 
L 2444 897 
L 1241 4097 
L 1241 0 
L 628 0 
L 628 4666 
z
" id="DejaVuSans-4d" transform="scale(0.015625)"/>
       <path d="M 2841 2188 
Q 3044 2119 3236 1894 
Q 3428 1669 3622 1275 
L 4263 0 
L 3584 0 
L 2988 1197 
Q 2756 1666 2539 1819 
Q 2322 1972 1947 1972 
L 1259 1972 
L 1259 0 
L 628 0 
L 628 4666 
L 2053 4666 
Q 2853 4666 3247 4331 
Q 3641 3997 3641 3322 
Q 3641 2881 3436 2590 
Q 3231 2300 2841 2188 
z
M 1259 4147 
L 1259 2491 
L 2053 2491 
Q 2509 2491 2742 2702 
Q 2975 2913 2975 3322 
Q 2975 3731 2742 3939 
Q 2509 4147 2053 4147 
L 1259 4147 
z
" id="DejaVuSans-52" transform="scale(0.015625)"/>
       <path d="M 1625 4666 
L 2156 4666 
L 531 -594 
L 0 -594 
L 1625 4666 
z
" id="DejaVuSans-2f" transform="scale(0.015625)"/>
       <path d="M 2906 2969 
L 2906 4863 
L 3481 4863 
L 3481 0 
L 2906 0 
L 2906 525 
Q 2725 213 2448 61 
Q 2172 -91 1784 -91 
Q 1150 -91 751 415 
Q 353 922 353 1747 
Q 353 2572 751 3078 
Q 1150 3584 1784 3584 
Q 2172 3584 2448 3432 
Q 2725 3281 2906 2969 
z
M 947 1747 
Q 947 1113 1208 752 
Q 1469 391 1925 391 
Q 2381 391 2643 752 
Q 2906 1113 2906 1747 
Q 2906 2381 2643 2742 
Q 2381 3103 1925 3103 
Q 1469 3103 1208 2742 
Q 947 2381 947 1747 
z
" id="DejaVuSans-64" transform="scale(0.015625)"/>
       <path d="M 1259 2228 
L 1259 519 
L 2272 519 
Q 2781 519 3026 730 
Q 3272 941 3272 1375 
Q 3272 1813 3026 2020 
Q 2781 2228 2272 2228 
L 1259 2228 
z
M 1259 4147 
L 1259 2741 
L 2194 2741 
Q 2656 2741 2882 2914 
Q 3109 3088 3109 3444 
Q 3109 3797 2882 3972 
Q 2656 4147 2194 4147 
L 1259 4147 
z
M 628 4666 
L 2241 4666 
Q 2963 4666 3353 4366 
Q 3744 4066 3744 3513 
Q 3744 3084 3544 2831 
Q 3344 2578 2956 2516 
Q 3422 2416 3680 2098 
Q 3938 1781 3938 1306 
Q 3938 681 3513 340 
Q 3088 0 2303 0 
L 628 0 
L 628 4666 
z
" id="DejaVuSans-42" transform="scale(0.015625)"/>
      </defs>
      <use xlink:href="#DejaVuSans-43"/>
      <use x="69.824219" xlink:href="#DejaVuSans-4d"/>
      <use x="156.103516" xlink:href="#DejaVuSans-52"/>
      <use x="225.585938" xlink:href="#DejaVuSans-52"/>
      <use x="295.068359" xlink:href="#DejaVuSans-2f"/>
      <use x="328.759766" xlink:href="#DejaVuSans-64"/>
      <use x="392.236328" xlink:href="#DejaVuSans-42"/>
     </g>
    </g>
   </g>
   <g id="matplotlib.axis_2">
    <g id="ytick_1">
     <g id="line2d_17">
      <path clip-path="url(#p92c9beac1f)" d="M 43.78125 349.892925 
L 616.28925 349.892925 
" style="fill:none;stroke:#b0b0b0;stroke-linecap:square;stroke-width:0.8;"/>
     </g>
     <g id="line2d_18">
      <defs>
       <path d="M 0 0 
L -3.5 0 
" id="md619977d52" style="stroke:#000000;stroke-width:0.8;"/>
      </defs>
      <g>
       <use style="stroke:#000000;stroke-width:0.8;" x="43.78125" xlink:href="#md619977d52" y="349.892925"/>
      </g>
     </g>
     <g id="text_10">
      <!-- 0.0 -->
      <g transform="translate(20.878125 353.692144)scale(0.1 -0.1)">
       <use xlink:href="#DejaVuSans-30"/>
       <use x="63.623047" xlink:href="#DejaVuSans-2e"/>
       <use x="95.410156" xlink:href="#DejaVuSans-30"/>
      </g>
     </g>
    </g>
    <g id="ytick_2">
     <g id="line2d_19">
      <path clip-path="url(#p92c9beac1f)" d="M 43.78125 287.497725 
L 616.28925 287.497725 
" style="fill:none;stroke:#b0b0b0;stroke-linecap:square;stroke-width:0.8;"/>
     </g>
     <g id="line2d_20">
      <g>
       <use style="stroke:#000000;stroke-width:0.8;" x="43.78125" xlink:href="#md619977d52" y="287.497725"/>
      </g>
     </g>
     <g id="text_11">
      <!-- 0.2 -->
      <g transform="translate(20.878125 291.296944)scale(0.1 -0.1)">
       <use xlink:href="#DejaVuSans-30"/>
       <use x="63.623047" xlink:href="#DejaVuSans-2e"/>
       <use x="95.410156" xlink:href="#DejaVuSans-32"/>
      </g>
     </g>
    </g>
    <g id="ytick_3">
     <g id="line2d_21">
      <path clip-path="url(#p92c9beac1f)" d="M 43.78125 225.102525 
L 616.28925 225.102525 
" style="fill:none;stroke:#b0b0b0;stroke-linecap:square;stroke-width:0.8;"/>
     </g>
     <g id="line2d_22">
      <g>
       <use style="stroke:#000000;stroke-width:0.8;" x="43.78125" xlink:href="#md619977d52" y="225.102525"/>
      </g>
     </g>
     <g id="text_12">
      <!-- 0.4 -->
      <g transform="translate(20.878125 228.901744)scale(0.1 -0.1)">
       <defs>
        <path d="M 2419 4116 
L 825 1625 
L 2419 1625 
L 2419 4116 
z
M 2253 4666 
L 3047 4666 
L 3047 1625 
L 3713 1625 
L 3713 1100 
L 3047 1100 
L 3047 0 
L 2419 0 
L 2419 1100 
L 313 1100 
L 313 1709 
L 2253 4666 
z
" id="DejaVuSans-34" transform="scale(0.015625)"/>
       </defs>
       <use xlink:href="#DejaVuSans-30"/>
       <use x="63.623047" xlink:href="#DejaVuSans-2e"/>
       <use x="95.410156" xlink:href="#DejaVuSans-34"/>
      </g>
     </g>
    </g>
    <g id="ytick_4">
     <g id="line2d_23">
      <path clip-path="url(#p92c9beac1f)" d="M 43.78125 162.707325 
L 616.28925 162.707325 
" style="fill:none;stroke:#b0b0b0;stroke-linecap:square;stroke-width:0.8;"/>
     </g>
     <g id="line2d_24">
      <g>
       <use style="stroke:#000000;stroke-width:0.8;" x="43.78125" xlink:href="#md619977d52" y="162.707325"/>
      </g>
     </g>
     <g id="text_13">
      <!-- 0.6 -->
      <g transform="translate(20.878125 166.506544)scale(0.1 -0.1)">
       <use xlink:href="#DejaVuSans-30"/>
       <use x="63.623047" xlink:href="#DejaVuSans-2e"/>
       <use x="95.410156" xlink:href="#DejaVuSans-36"/>
      </g>
     </g>
    </g>
    <g id="ytick_5">
     <g id="line2d_25">
      <path clip-path="url(#p92c9beac1f)" d="M 43.78125 100.312125 
L 616.28925 100.312125 
" style="fill:none;stroke:#b0b0b0;stroke-linecap:square;stroke-width:0.8;"/>
     </g>
     <g id="line2d_26">
      <g>
       <use style="stroke:#000000;stroke-width:0.8;" x="43.78125" xlink:href="#md619977d52" y="100.312125"/>
      </g>
     </g>
     <g id="text_14">
      <!-- 0.8 -->
      <g transform="translate(20.878125 104.111344)scale(0.1 -0.1)">
       <defs>
        <path d="M 2034 2216 
Q 1584 2216 1326 1975 
Q 1069 1734 1069 1313 
Q 1069 891 1326 650 
Q 1584 409 2034 409 
Q 2484 409 2743 651 
Q 3003 894 3003 1313 
Q 3003 1734 2745 1975 
Q 2488 2216 2034 2216 
z
M 1403 2484 
Q 997 2584 770 2862 
Q 544 3141 544 3541 
Q 544 4100 942 4425 
Q 1341 4750 2034 4750 
Q 2731 4750 3128 4425 
Q 3525 4100 3525 3541 
Q 3525 3141 3298 2862 
Q 3072 2584 2669 2484 
Q 3125 2378 3379 2068 
Q 3634 1759 3634 1313 
Q 3634 634 3220 271 
Q 2806 -91 2034 -91 
Q 1263 -91 848 271 
Q 434 634 434 1313 
Q 434 1759 690 2068 
Q 947 2378 1403 2484 
z
M 1172 3481 
Q 1172 3119 1398 2916 
Q 1625 2713 2034 2713 
Q 2441 2713 2670 2916 
Q 2900 3119 2900 3481 
Q 2900 3844 2670 4047 
Q 2441 4250 2034 4250 
Q 1625 4250 1398 4047 
Q 1172 3844 1172 3481 
z
" id="DejaVuSans-38" transform="scale(0.015625)"/>
       </defs>
       <use xlink:href="#DejaVuSans-30"/>
       <use x="63.623047" xlink:href="#DejaVuSans-2e"/>
       <use x="95.410156" xlink:href="#DejaVuSans-38"/>
      </g>
     </g>
    </g>
    <g id="ytick_6">
     <g id="line2d_27">
      <path clip-path="url(#p92c9beac1f)" d="M 43.78125 37.916925 
L 616.28925 37.916925 
" style="fill:none;stroke:#b0b0b0;stroke-linecap:square;stroke-width:0.8;"/>
     </g>
     <g id="line2d_28">
      <g>
       <use style="stroke:#000000;stroke-width:0.8;" x="43.78125" xlink:href="#md619977d52" y="37.916925"/>
      </g>
     </g>
     <g id="text_15">
      <!-- 1.0 -->
      <g transform="translate(20.878125 41.716144)scale(0.1 -0.1)">
       <defs>
        <path d="M 794 531 
L 1825 531 
L 1825 4091 
L 703 3866 
L 703 4441 
L 1819 4666 
L 2450 4666 
L 2450 531 
L 3481 531 
L 3481 0 
L 794 0 
L 794 531 
z
" id="DejaVuSans-31" transform="scale(0.015625)"/>
       </defs>
       <use xlink:href="#DejaVuSans-31"/>
       <use x="63.623047" xlink:href="#DejaVuSans-2e"/>
       <use x="95.410156" xlink:href="#DejaVuSans-30"/>
      </g>
     </g>
    </g>
    <g id="text_16">
     <!-- CDF -->
     <g transform="translate(14.798437 204.122112)rotate(-90)scale(0.1 -0.1)">
      <defs>
       <path d="M 1259 4147 
L 1259 519 
L 2022 519 
Q 2988 519 3436 956 
Q 3884 1394 3884 2338 
Q 3884 3275 3436 3711 
Q 2988 4147 2022 4147 
L 1259 4147 
z
M 628 4666 
L 1925 4666 
Q 3281 4666 3915 4102 
Q 4550 3538 4550 2338 
Q 4550 1131 3912 565 
Q 3275 0 1925 0 
L 628 0 
L 628 4666 
z
" id="DejaVuSans-44" transform="scale(0.015625)"/>
       <path d="M 628 4666 
L 3309 4666 
L 3309 4134 
L 1259 4134 
L 1259 2759 
L 3109 2759 
L 3109 2228 
L 1259 2228 
L 1259 0 
L 628 0 
L 628 4666 
z
" id="DejaVuSans-46" transform="scale(0.015625)"/>
      </defs>
      <use xlink:href="#DejaVuSans-43"/>
      <use x="69.824219" xlink:href="#DejaVuSans-44"/>
      <use x="146.826172" xlink:href="#DejaVuSans-46"/>
     </g>
    </g>
   </g>
   <g id="line2d_29">
    <path clip-path="url(#p92c9beac1f)" d="M 69.898931 349.892837 
L 88.808926 349.757239 
L 91.966907 349.740294 
L 105.040786 349.664378 
L 105.123463 349.51009 
L 111.997021 349.449449 
L 112.127978 348.938233 
L 118.194208 348.8079 
L 118.488338 348.570113 
L 120.11413 348.559746 
L 120.356905 348.555454 
L 120.965648 347.422017 
L 122.206871 347.412148 
L 122.364968 347.301479 
L 125.832397 347.291649 
L 126.059078 346.799469 
L 131.820548 346.727713 
L 131.969241 346.457685 
L 133.847541 346.378708 
L 133.916095 346.080198 
L 134.762119 346.079865 
L 135.15681 345.331507 
L 138.192613 345.230671 
L 140.905054 344.882792 
L 141.143111 344.717728 
L 142.373884 344.597468 
L 145.584384 344.506765 
L 145.651535 344.423289 
L 146.580384 344.341539 
L 147.410404 343.608636 
L 149.801126 343.533096 
L 150.204865 343.456371 
L 150.603587 342.984126 
L 152.840661 342.967382 
L 153.211168 342.573947 
L 155.610608 342.571011 
L 155.651066 342.256825 
L 158.687316 342.153142 
L 166.430664 341.798718 
L 166.501756 341.033319 
L 167.764984 341.031731 
L 167.82255 340.897162 
L 169.605007 340.889654 
L 170.934162 340.682875 
L 172.270781 340.658642 
L 172.377672 338.930111 
L 176.004422 338.83215 
L 177.314766 338.764553 
L 178.316229 337.729217 
L 181.009711 337.706744 
L 181.086296 337.527795 
L 183.884907 337.494495 
L 184.091136 337.25866 
L 184.887237 337.248128 
L 185.560772 336.698005 
L 189.214543 336.531359 
L 189.738878 336.228361 
L 190.348755 335.651031 
L 190.46323 333.450953 
L 190.881868 333.450626 
L 191.312538 331.471653 
L 192.127958 331.464189 
L 192.741806 331.147477 
L 194.866614 331.088762 
L 194.89059 330.947075 
L 197.532805 330.836287 
L 197.928602 330.823089 
L 198.142802 330.590919 
L 199.402657 330.538935 
L 199.66669 330.429563 
L 201.572401 330.401269 
L 201.716554 330.287159 
L 203.11892 330.247535 
L 203.403944 330.0075 
L 204.398391 329.933024 
L 204.644032 329.675974 
L 204.908603 329.643814 
L 204.989369 329.487119 
L 206.962618 329.422237 
L 208.116656 329.164181 
L 208.493432 328.896214 
L 211.836831 328.844458 
L 211.967758 328.112096 
L 217.05856 328.053852 
L 217.1742 327.833019 
L 217.902822 327.720799 
L 218.341435 327.594521 
L 218.86135 327.529191 
L 218.901091 327.388251 
L 220.929876 327.379076 
L 220.947164 325.716935 
L 226.18209 325.629256 
L 227.162743 325.148448 
L 227.831769 325.148271 
L 227.897635 322.604615 
L 228.192333 322.594782 
L 228.324096 322.477607 
L 229.149488 322.316658 
L 230.015038 322.117579 
L 232.741931 322.04274 
L 232.938187 321.717983 
L 233.341149 321.701993 
L 233.518326 320.985342 
L 238.985875 320.727481 
L 240.060222 320.434892 
L 243.999196 320.321111 
L 244.215487 319.525879 
L 244.519022 319.51722 
L 244.618479 319.399354 
L 244.890664 319.30634 
L 245.393232 319.024177 
L 247.675182 318.972879 
L 247.708354 317.162857 
L 247.844595 317.076116 
L 248.115377 316.798993 
L 250.481914 316.787462 
L 250.672527 312.475693 
L 250.917362 312.475486 
L 251.547035 312.269525 
L 251.711463 311.739036 
L 252.497084 311.564281 
L 253.627802 311.554603 
L 253.949969 310.821534 
L 254.100543 310.821327 
L 254.317699 310.636442 
L 254.783542 310.636143 
L 254.916679 310.504702 
L 255.631417 310.461092 
L 255.901243 308.249754 
L 256.253477 308.246355 
L 256.765271 306.935485 
L 256.87043 306.888352 
L 259.162502 306.730241 
L 259.444988 303.184237 
L 259.518707 302.956843 
L 260.441824 302.908597 
L 260.743777 302.443167 
L 261.920238 302.429163 
L 261.990493 301.735833 
L 263.095504 301.730456 
L 263.216757 301.359793 
L 263.765068 301.318714 
L 263.858195 300.012953 
L 265.405401 299.932172 
L 265.744856 299.417497 
L 265.818724 298.78271 
L 266.117781 298.359837 
L 267.45861 298.315068 
L 267.560694 295.925579 
L 268.581805 295.925114 
L 268.731452 291.61276 
L 268.89173 291.471239 
L 269.862231 291.410616 
L 269.985574 291.300377 
L 270.089509 288.370541 
L 270.591689 286.882074 
L 272.149973 286.617205 
L 272.726619 286.589043 
L 273.691537 286.313572 
L 278.122002 286.24535 
L 279.041177 267.473478 
L 279.343518 267.435895 
L 279.555718 267.291247 
L 280.503707 267.196464 
L 282.940709 266.919335 
L 285.275447 266.914636 
L 285.847943 266.211013 
L 286.674111 266.163326 
L 286.918826 265.893077 
L 287.154674 265.88634 
L 289.022853 265.523311 
L 289.115144 264.964461 
L 289.757716 264.96354 
L 289.869563 262.302064 
L 291.672204 262.152327 
L 291.803669 260.477991 
L 292.925012 260.373361 
L 293.047639 259.412077 
L 294.687046 259.408816 
L 294.952095 258.780827 
L 295.702872 258.549526 
L 296.938034 258.524137 
L 297.746377 258.266054 
L 299.312155 258.224897 
L 299.370945 257.860376 
L 300.561529 257.858138 
L 300.812903 248.500679 
L 302.723062 248.403161 
L 302.810486 248.137737 
L 305.47396 248.070666 
L 305.543589 247.281367 
L 305.934787 247.266327 
L 305.959808 247.131123 
L 310.680223 247.030324 
L 311.279829 246.765557 
L 312.75887 246.666343 
L 312.973817 243.704828 
L 313.948439 243.369199 
L 314.072081 242.719575 
L 316.363287 242.627235 
L 316.5516 239.150613 
L 318.794735 239.044752 
L 319.757175 238.934664 
L 322.055218 238.814405 
L 322.078597 238.56133 
L 322.425546 238.387506 
L 323.317401 238.374626 
L 323.592571 238.01241 
L 323.835376 238.008185 
L 323.838989 237.884646 
L 324.713348 237.826223 
L 324.943671 237.682195 
L 326.756434 237.588109 
L 327.365177 237.528631 
L 327.451646 236.378485 
L 327.556118 232.611646 
L 328.954334 232.536166 
L 328.988581 230.998206 
L 329.529338 230.864961 
L 330.133333 226.024236 
L 330.775338 226.024033 
L 331.487837 225.706641 
L 333.23118 225.687476 
L 333.518234 225.516523 
L 333.857689 225.475399 
L 334.363332 225.30877 
L 334.531313 219.706214 
L 334.841984 219.690959 
L 334.894385 217.366328 
L 335.485153 217.365212 
L 335.599001 216.852204 
L 337.392118 216.81402 
L 338.142626 216.53008 
L 340.552965 216.420352 
L 340.574672 215.033154 
L 343.384151 214.917862 
L 343.719455 211.844243 
L 343.728532 208.62562 
L 344.310463 204.642887 
L 344.460946 204.403574 
L 345.204438 204.390932 
L 345.380361 200.840036 
L 345.534517 200.838909 
L 346.766454 200.244426 
L 347.165714 200.242109 
L 347.216532 199.147101 
L 347.821035 199.133693 
L 348.097012 198.28671 
L 348.681719 198.235447 
L 348.865136 197.859616 
L 349.348297 197.825089 
L 350.227672 197.51782 
L 350.572949 197.517507 
L 351.020071 197.260246 
L 352.59833 197.236577 
L 352.843881 195.661597 
L 353.083998 195.133232 
L 356.356932 195.007443 
L 356.415215 194.680974 
L 356.790498 194.672101 
L 357.058294 194.444776 
L 357.479201 193.931258 
L 359.309401 193.695836 
L 359.395093 192.199508 
L 359.734309 191.792563 
L 359.845589 186.566873 
L 361.617208 186.544794 
L 361.702989 186.062777 
L 362.000523 186.009969 
L 362.336425 182.349876 
L 363.041221 182.339969 
L 363.300566 182.223126 
L 363.848518 181.752301 
L 364.696274 181.639188 
L 364.869868 181.438742 
L 365.761813 181.343809 
L 366.063467 180.989475 
L 367.374677 180.97928 
L 367.438722 179.511439 
L 368.697561 179.441359 
L 369.323532 179.352287 
L 369.488318 178.090528 
L 370.154776 178.088976 
L 371.38746 177.225331 
L 372.688548 177.223635 
L 372.805859 176.82248 
L 373.218316 176.708537 
L 373.594198 176.329594 
L 373.922426 176.144866 
L 374.081956 173.984085 
L 374.525824 172.80577 
L 375.92392 172.701126 
L 376.37361 172.554199 
L 377.225456 172.422296 
L 377.293383 172.201916 
L 377.315418 170.503946 
L 378.737072 170.49164 
L 378.911621 169.788678 
L 379.823123 169.785856 
L 380.955574 169.469727 
L 381.341756 165.410093 
L 383.049001 165.22952 
L 383.564348 164.942676 
L 385.693038 164.813148 
L 385.810947 164.69947 
L 387.283329 164.679534 
L 387.456625 163.687939 
L 387.793989 163.555629 
L 387.910136 163.381647 
L 388.502069 163.328742 
L 388.817428 163.000007 
L 389.629115 162.903914 
L 389.940922 162.843569 
L 390.055337 162.842871 
L 390.060861 162.223597 
L 393.83908 162.07673 
L 394.988788 162.051499 
L 395.280918 161.189385 
L 396.510795 161.187102 
L 397.189793 160.338381 
L 397.783846 160.297826 
L 398.070721 160.108827 
L 400.863539 160.034722 
L 401.102582 159.797802 
L 401.747572 159.672977 
L 403.703892 159.525349 
L 405.895611 159.183602 
L 406.025583 149.484712 
L 406.209388 149.480929 
L 406.543647 149.014336 
L 407.100825 149.013025 
L 407.873638 148.661032 
L 407.970258 147.729676 
L 409.146689 147.668651 
L 409.211749 147.159509 
L 409.683982 147.159373 
L 409.819716 146.689774 
L 410.120952 146.638296 
L 411.050907 145.704841 
L 412.394393 145.671751 
L 412.705243 145.497243 
L 412.878359 144.617315 
L 413.453662 144.609405 
L 413.738566 144.453641 
L 415.293983 144.409349 
L 415.32193 143.14208 
L 416.736627 143.058071 
L 417.128154 142.883116 
L 417.167328 140.6443 
L 417.611165 139.250951 
L 419.292076 139.173766 
L 419.693336 138.626855 
L 420.712625 138.551933 
L 420.755591 138.305303 
L 420.875082 138.282903 
L 421.082385 138.044915 
L 421.539958 137.943545 
L 421.883652 137.892249 
L 422.978571 137.63425 
L 425.628102 137.347417 
L 426.417694 137.064233 
L 426.436415 136.893657 
L 426.610457 136.893062 
L 426.791993 136.586624 
L 427.639987 136.586306 
L 427.686774 119.358754 
L 427.947046 119.331249 
L 428.134285 119.233631 
L 428.426444 118.806868 
L 428.617475 118.765554 
L 428.769183 118.017341 
L 429.155067 117.7582 
L 430.68415 117.715463 
L 431.360879 117.36155 
L 434.771726 117.285575 
L 435.451441 117.146021 
L 436.324785 115.529686 
L 436.525788 111.905447 
L 438.608198 111.813937 
L 439.021849 111.446242 
L 440.007399 111.429666 
L 440.216225 111.03922 
L 441.689713 110.94604 
L 442.262029 110.678077 
L 442.655556 110.571551 
L 443.957122 110.454962 
L 446.105816 110.348545 
L 446.490505 110.314611 
L 446.571599 109.961798 
L 446.948824 109.422497 
L 447.294011 109.211765 
L 448.981072 109.144242 
L 450.229133 109.01085 
L 450.623884 108.992161 
L 450.799568 108.769959 
L 451.638426 108.742127 
L 451.66488 107.120326 
L 456.101794 107.002289 
L 457.273746 106.959616 
L 461.604575 106.875203 
L 462.29704 106.674615 
L 466.18015 106.568797 
L 466.790206 104.14739 
L 468.69732 104.079134 
L 468.723953 103.972422 
L 469.68281 103.971645 
L 470.063379 103.123997 
L 473.838105 103.040579 
L 473.839986 102.891603 
L 477.36065 102.743043 
L 477.700374 102.6435 
L 478.559445 99.364154 
L 480.291801 99.361638 
L 480.473307 97.126321 
L 483.364 97.023609 
L 483.494061 96.468342 
L 484.291894 96.326955 
L 484.709098 96.230664 
L 486.296195 96.227701 
L 486.97803 95.805431 
L 487.876604 95.775329 
L 488.062469 93.362131 
L 488.192799 93.360248 
L 488.602957 92.601534 
L 488.765861 92.546397 
L 491.072892 92.416009 
L 492.479617 92.324667 
L 492.967227 91.890176 
L 494.58245 91.829362 
L 494.945581 91.626492 
L 495.502849 91.622431 
L 495.57206 89.697232 
L 497.361982 89.689415 
L 497.465827 89.202716 
L 499.366761 89.149446 
L 499.449527 89.008083 
L 499.844129 88.93829 
L 500.102131 88.736327 
L 505.066365 88.60059 
L 505.375036 88.559242 
L 506.718105 88.52332 
L 506.748978 87.784957 
L 507.969181 87.77992 
L 508.359274 87.512359 
L 509.215031 87.32531 
L 509.912602 87.297994 
L 510.181263 86.845507 
L 514.649797 86.792361 
L 514.901499 86.529107 
L 516.04225 86.519412 
L 516.48976 86.378437 
L 516.782338 86.031353 
L 519.828232 85.786359 
L 519.880632 85.559253 
L 521.089549 85.542778 
L 521.314708 85.051003 
L 521.487465 81.87018 
L 522.462117 81.821866 
L 522.671869 81.43019 
L 525.211433 81.367498 
L 525.374755 81.269104 
L 527.920858 81.179139 
L 527.936444 81.08081 
L 530.235741 81.023438 
L 530.615593 80.941726 
L 533.313106 80.877161 
L 533.523723 80.782584 
L 536.511275 80.688939 
L 549.361191 80.164256 
L 557.383263 80.031491 
L 557.509233 79.987976 
L 560.997562 79.878189 
L 561.135535 79.859036 
L 569.111119 79.771854 
L 569.190212 79.670443 
L 570.926807 79.663238 
L 570.948574 79.229992 
L 585.072586 79.136523 
L 590.168464 79.047938 
L 590.168464 79.047938 
" style="fill:none;stroke:#1f77b4;stroke-linecap:square;stroke-width:1.5;"/>
   </g>
   <g id="line2d_30">
    <defs>
     <path d="M -3 3 
L 3 -3 
M -3 -3 
L 3 3 
" id="m05b4fed6e3" style="stroke:#ff0000;"/>
    </defs>
    <g clip-path="url(#p92c9beac1f)">
     <use style="fill:#ff0000;stroke:#ff0000;" x="69.804341" xlink:href="#m05b4fed6e3" y="349.892925"/>
     <use style="fill:#ff0000;stroke:#ff0000;" x="590.266159" xlink:href="#m05b4fed6e3" y="37.916925"/>
    </g>
   </g>
   <g id="patch_3">
    <path d="M 43.78125 365.491725 
L 43.78125 22.318125 
" style="fill:none;stroke:#000000;stroke-linecap:square;stroke-linejoin:miter;stroke-width:0.8;"/>
   </g>
   <g id="patch_4">
    <path d="M 616.28925 365.491725 
L 616.28925 22.318125 
" style="fill:none;stroke:#000000;stroke-linecap:square;stroke-linejoin:miter;stroke-width:0.8;"/>
   </g>
   <g id="patch_5">
    <path d="M 43.78125 365.491725 
L 616.28925 365.491725 
" style="fill:none;stroke:#000000;stroke-linecap:square;stroke-linejoin:miter;stroke-width:0.8;"/>
   </g>
   <g id="patch_6">
    <path d="M 43.78125 22.318125 
L 616.28925 22.318125 
" style="fill:none;stroke:#000000;stroke-linecap:square;stroke-linejoin:miter;stroke-width:0.8;"/>
   </g>
   <g id="text_17">
    <!-- Tolerance Analysis of cmrr.net -->
    <g transform="translate(240.022125 16.318125)scale(0.12 -0.12)">
     <defs>
      <path d="M -19 4666 
L 3928 4666 
L 3928 4134 
L 2272 4134 
L 2272 0 
L 1638 0 
L 1638 4134 
L -19 4134 
L -19 4666 
z
" id="DejaVuSans-54" transform="scale(0.015625)"/>
      <path d="M 1959 3097 
Q 1497 3097 1228 2736 
Q 959 2375 959 1747 
Q 959 1119 1226 758 
Q 1494 397 1959 397 
Q 2419 397 2687 759 
Q 2956 1122 2956 1747 
Q 2956 2369 2687 2733 
Q 2419 3097 1959 3097 
z
M 1959 3584 
Q 2709 3584 3137 3096 
Q 3566 2609 3566 1747 
Q 3566 888 3137 398 
Q 2709 -91 1959 -91 
Q 1206 -91 779 398 
Q 353 888 353 1747 
Q 353 2609 779 3096 
Q 1206 3584 1959 3584 
z
" id="DejaVuSans-6f" transform="scale(0.015625)"/>
      <path d="M 603 4863 
L 1178 4863 
L 1178 0 
L 603 0 
L 603 4863 
z
" id="DejaVuSans-6c" transform="scale(0.015625)"/>
      <path d="M 3597 1894 
L 3597 1613 
L 953 1613 
Q 991 1019 1311 708 
Q 1631 397 2203 397 
Q 2534 397 2845 478 
Q 3156 559 3463 722 
L 3463 178 
Q 3153 47 2828 -22 
Q 2503 -91 2169 -91 
Q 1331 -91 842 396 
Q 353 884 353 1716 
Q 353 2575 817 3079 
Q 1281 3584 2069 3584 
Q 2775 3584 3186 3129 
Q 3597 2675 3597 1894 
z
M 3022 2063 
Q 3016 2534 2758 2815 
Q 2500 3097 2075 3097 
Q 1594 3097 1305 2825 
Q 1016 2553 972 2059 
L 3022 2063 
z
" id="DejaVuSans-65" transform="scale(0.015625)"/>
      <path d="M 2631 2963 
Q 2534 3019 2420 3045 
Q 2306 3072 2169 3072 
Q 1681 3072 1420 2755 
Q 1159 2438 1159 1844 
L 1159 0 
L 581 0 
L 581 3500 
L 1159 3500 
L 1159 2956 
Q 1341 3275 1631 3429 
Q 1922 3584 2338 3584 
Q 2397 3584 2469 3576 
Q 2541 3569 2628 3553 
L 2631 2963 
z
" id="DejaVuSans-72" transform="scale(0.015625)"/>
      <path d="M 2194 1759 
Q 1497 1759 1228 1600 
Q 959 1441 959 1056 
Q 959 750 1161 570 
Q 1363 391 1709 391 
Q 2188 391 2477 730 
Q 2766 1069 2766 1631 
L 2766 1759 
L 2194 1759 
z
M 3341 1997 
L 3341 0 
L 2766 0 
L 2766 531 
Q 2569 213 2275 61 
Q 1981 -91 1556 -91 
Q 1019 -91 701 211 
Q 384 513 384 1019 
Q 384 1609 779 1909 
Q 1175 2209 1959 2209 
L 2766 2209 
L 2766 2266 
Q 2766 2663 2505 2880 
Q 2244 3097 1772 3097 
Q 1472 3097 1187 3025 
Q 903 2953 641 2809 
L 641 3341 
Q 956 3463 1253 3523 
Q 1550 3584 1831 3584 
Q 2591 3584 2966 3190 
Q 3341 2797 3341 1997 
z
" id="DejaVuSans-61" transform="scale(0.015625)"/>
      <path d="M 3513 2113 
L 3513 0 
L 2938 0 
L 2938 2094 
Q 2938 2591 2744 2837 
Q 2550 3084 2163 3084 
Q 1697 3084 1428 2787 
Q 1159 2491 1159 1978 
L 1159 0 
L 581 0 
L 581 3500 
L 1159 3500 
L 1159 2956 
Q 1366 3272 1645 3428 
Q 1925 3584 2291 3584 
Q 2894 3584 3203 3211 
Q 3513 2838 3513 2113 
z
" id="DejaVuSans-6e" transform="scale(0.015625)"/>
      <path d="M 3122 3366 
L 3122 2828 
Q 2878 2963 2633 3030 
Q 2388 3097 2138 3097 
Q 1578 3097 1268 2742 
Q 959 2388 959 1747 
Q 959 1106 1268 751 
Q 1578 397 2138 397 
Q 2388 397 2633 464 
Q 2878 531 3122 666 
L 3122 134 
Q 2881 22 2623 -34 
Q 2366 -91 2075 -91 
Q 1284 -91 818 406 
Q 353 903 353 1747 
Q 353 2603 823 3093 
Q 1294 3584 2113 3584 
Q 2378 3584 2631 3529 
Q 2884 3475 3122 3366 
z
" id="DejaVuSans-63" transform="scale(0.015625)"/>
      <path id="DejaVuSans-20" transform="scale(0.015625)"/>
      <path d="M 2188 4044 
L 1331 1722 
L 3047 1722 
L 2188 4044 
z
M 1831 4666 
L 2547 4666 
L 4325 0 
L 3669 0 
L 3244 1197 
L 1141 1197 
L 716 0 
L 50 0 
L 1831 4666 
z
" id="DejaVuSans-41" transform="scale(0.015625)"/>
      <path d="M 2059 -325 
Q 1816 -950 1584 -1140 
Q 1353 -1331 966 -1331 
L 506 -1331 
L 506 -850 
L 844 -850 
Q 1081 -850 1212 -737 
Q 1344 -625 1503 -206 
L 1606 56 
L 191 3500 
L 800 3500 
L 1894 763 
L 2988 3500 
L 3597 3500 
L 2059 -325 
z
" id="DejaVuSans-79" transform="scale(0.015625)"/>
      <path d="M 2834 3397 
L 2834 2853 
Q 2591 2978 2328 3040 
Q 2066 3103 1784 3103 
Q 1356 3103 1142 2972 
Q 928 2841 928 2578 
Q 928 2378 1081 2264 
Q 1234 2150 1697 2047 
L 1894 2003 
Q 2506 1872 2764 1633 
Q 3022 1394 3022 966 
Q 3022 478 2636 193 
Q 2250 -91 1575 -91 
Q 1294 -91 989 -36 
Q 684 19 347 128 
L 347 722 
Q 666 556 975 473 
Q 1284 391 1588 391 
Q 1994 391 2212 530 
Q 2431 669 2431 922 
Q 2431 1156 2273 1281 
Q 2116 1406 1581 1522 
L 1381 1569 
Q 847 1681 609 1914 
Q 372 2147 372 2553 
Q 372 3047 722 3315 
Q 1072 3584 1716 3584 
Q 2034 3584 2315 3537 
Q 2597 3491 2834 3397 
z
" id="DejaVuSans-73" transform="scale(0.015625)"/>
      <path d="M 603 3500 
L 1178 3500 
L 1178 0 
L 603 0 
L 603 3500 
z
M 603 4863 
L 1178 4863 
L 1178 4134 
L 603 4134 
L 603 4863 
z
" id="DejaVuSans-69" transform="scale(0.015625)"/>
      <path d="M 2375 4863 
L 2375 4384 
L 1825 4384 
Q 1516 4384 1395 4259 
Q 1275 4134 1275 3809 
L 1275 3500 
L 2222 3500 
L 2222 3053 
L 1275 3053 
L 1275 0 
L 697 0 
L 697 3053 
L 147 3053 
L 147 3500 
L 697 3500 
L 697 3744 
Q 697 4328 969 4595 
Q 1241 4863 1831 4863 
L 2375 4863 
z
" id="DejaVuSans-66" transform="scale(0.015625)"/>
      <path d="M 3328 2828 
Q 3544 3216 3844 3400 
Q 4144 3584 4550 3584 
Q 5097 3584 5394 3201 
Q 5691 2819 5691 2113 
L 5691 0 
L 5113 0 
L 5113 2094 
Q 5113 2597 4934 2840 
Q 4756 3084 4391 3084 
Q 3944 3084 3684 2787 
Q 3425 2491 3425 1978 
L 3425 0 
L 2847 0 
L 2847 2094 
Q 2847 2600 2669 2842 
Q 2491 3084 2119 3084 
Q 1678 3084 1418 2786 
Q 1159 2488 1159 1978 
L 1159 0 
L 581 0 
L 581 3500 
L 1159 3500 
L 1159 2956 
Q 1356 3278 1631 3431 
Q 1906 3584 2284 3584 
Q 2666 3584 2933 3390 
Q 3200 3197 3328 2828 
z
" id="DejaVuSans-6d" transform="scale(0.015625)"/>
      <path d="M 1172 4494 
L 1172 3500 
L 2356 3500 
L 2356 3053 
L 1172 3053 
L 1172 1153 
Q 1172 725 1289 603 
Q 1406 481 1766 481 
L 2356 481 
L 2356 0 
L 1766 0 
Q 1100 0 847 248 
Q 594 497 594 1153 
L 594 3053 
L 172 3053 
L 172 3500 
L 594 3500 
L 594 4494 
L 1172 4494 
z
" id="DejaVuSans-74" transform="scale(0.015625)"/>
     </defs>
     <use xlink:href="#DejaVuSans-54"/>
     <use x="44.083984" xlink:href="#DejaVuSans-6f"/>
     <use x="105.265625" xlink:href="#DejaVuSans-6c"/>
     <use x="133.048828" xlink:href="#DejaVuSans-65"/>
     <use x="194.572266" xlink:href="#DejaVuSans-72"/>
     <use x="235.685547" xlink:href="#DejaVuSans-61"/>
     <use x="296.964844" xlink:href="#DejaVuSans-6e"/>
     <use x="360.34375" xlink:href="#DejaVuSans-63"/>
     <use x="415.324219" xlink:href="#DejaVuSans-65"/>
     <use x="476.847656" xlink:href="#DejaVuSans-20"/>
     <use x="508.634766" xlink:href="#DejaVuSans-41"/>
     <use x="577.042969" xlink:href="#DejaVuSans-6e"/>
     <use x="640.421875" xlink:href="#DejaVuSans-61"/>
     <use x="701.701172" xlink:href="#DejaVuSans-6c"/>
     <use x="729.484375" xlink:href="#DejaVuSans-79"/>
     <use x="788.664062" xlink:href="#DejaVuSans-73"/>
     <use x="840.763672" xlink:href="#DejaVuSans-69"/>
     <use x="868.546875" xlink:href="#DejaVuSans-73"/>
     <use x="920.646484" xlink:href="#DejaVuSans-20"/>
     <use x="952.433594" xlink:href="#DejaVuSans-6f"/>
     <use x="1013.615234" xlink:href="#DejaVuSans-66"/>
     <use x="1048.820312" xlink:href="#DejaVuSans-20"/>
     <use x="1080.607422" xlink:href="#DejaVuSans-63"/>
     <use x="1135.587891" xlink:href="#DejaVuSans-6d"/>
     <use x="1233" xlink:href="#DejaVuSans-72"/>
     <use x="1272.363281" xlink:href="#DejaVuSans-72"/>
     <use x="1304.351562" xlink:href="#DejaVuSans-2e"/>
     <use x="1336.138672" xlink:href="#DejaVuSans-6e"/>
     <use x="1399.517578" xlink:href="#DejaVuSans-65"/>
     <use x="1461.041016" xlink:href="#DejaVuSans-74"/>
    </g>
   </g>
   <g id="legend_1">
    <g id="patch_7">
     <path d="M 50.78125 44.99625 
L 139.092187 44.99625 
Q 141.092187 44.99625 141.092187 42.99625 
L 141.092187 29.318125 
Q 141.092187 27.318125 139.092187 27.318125 
L 50.78125 27.318125 
Q 48.78125 27.318125 48.78125 29.318125 
L 48.78125 42.99625 
Q 48.78125 44.99625 50.78125 44.99625 
z
" style="fill:#ffffff;opacity:0.8;stroke:#cccccc;stroke-linejoin:miter;"/>
    </g>
    <g id="line2d_31"/>
    <g id="line2d_32">
     <g>
      <use style="fill:#ff0000;stroke:#ff0000;" x="62.78125" xlink:href="#m05b4fed6e3" y="35.416563"/>
     </g>
    </g>
    <g id="text_18">
     <!-- Worst Case -->
     <g transform="translate(80.78125 38.916563)scale(0.1 -0.1)">
      <defs>
       <path d="M 213 4666 
L 850 4666 
L 1831 722 
L 2809 4666 
L 3519 4666 
L 4500 722 
L 5478 4666 
L 6119 4666 
L 4947 0 
L 4153 0 
L 3169 4050 
L 2175 0 
L 1381 0 
L 213 4666 
z
" id="DejaVuSans-57" transform="scale(0.015625)"/>
      </defs>
      <use xlink:href="#DejaVuSans-57"/>
      <use x="93.001953" xlink:href="#DejaVuSans-6f"/>
      <use x="154.183594" xlink:href="#DejaVuSans-72"/>
      <use x="195.296875" xlink:href="#DejaVuSans-73"/>
      <use x="247.396484" xlink:href="#DejaVuSans-74"/>
      <use x="286.605469" xlink:href="#DejaVuSans-20"/>
      <use x="318.392578" xlink:href="#DejaVuSans-43"/>
      <use x="388.216797" xlink:href="#DejaVuSans-61"/>
      <use x="449.496094" xlink:href="#DejaVuSans-73"/>
      <use x="501.595703" xlink:href="#DejaVuSans-65"/>
     </g>
    </g>
   </g>
  </g>
 </g>
 <defs>
  <clipPath id="p92c9beac1f">
   <rect height="343.1736" width="572.508" x="43.78125" y="22.318125"/>
  </clipPath>
 </defs>
</svg>
