<?xml version="1.0" encoding="utf-8" standalone="no"?>
<!DOCTYPE svg PUBLIC "-//W3C//DTD SVG 1.1//EN"
  "http://www.w3.org/Graphics/SVG/1.1/DTD/svg11.dtd">
<svg height="403.047975pt" version="1.1" viewBox="0 0 623.48925 403.047975" width="623.48925pt" xmlns="http://www.w3.org/2000/svg" xmlns:xlink="http://www.w3.org/1999/xlink">
 <metadata>
  <rdf:RDF xmlns:cc="http://creativecommons.org/ns#" xmlns:dc="http://purl.org/dc/elements/1.1/" xmlns:rdf="http://www.w3.org/1999/02/22-rdf-syntax-ns#">
   <cc:Work>
    <dc:type rdf:resource="http://purl.org/dc/dcmitype/StillImage"/>
    <dc:date>2021-08-11T16:44:38.189901</dc:date>
    <dc:format>image/svg+xml</dc:format>
    <dc:creator>
     <cc:Agent>
      <dc:title>Matplotlib v3.4.2, https://matplotlib.org/</dc:title>
     </cc:Agent>
    </dc:creator>
   </cc:Work>
  </rdf:RDF>
 </metadata>
 <defs>
  <style type="text/css">*{stroke-linecap:butt;stroke-linejoin:round;}</style>
 </defs>
 <g id="figure_1">
  <g id="patch_1">
   <path d="M 0 403.047975 
L 623.48925 403.047975 
L 623.48925 0 
L 0 0 
z
" style="fill:#ffffff;"/>
  </g>
  <g id="axes_1">
   <g id="patch_2">
    <path d="M 43.78125 365.491725 
L 616.28925 365.491725 
L 616.28925 22.318125 
L 43.78125 22.318125 
z
" style="fill:#ffffff;"/>
   </g>
   <g id="matplotlib.axis_1">
    <g id="xtick_1">
     <g id="line2d_1">
      <path clip-path="url(#pe8fda7d981)" d="M 71.842607 365.491725 
L 71.842607 22.318125 
" style="fill:none;stroke:#b0b0b0;stroke-linecap:square;stroke-width:0.8;"/>
     </g>
     <g id="line2d_2">
      <defs>
       <path d="M 0 0 
L 0 3.5 
" id="m2bac9c6f73" style="stroke:#000000;stroke-width:0.8;"/>
      </defs>
      <g>
       <use style="stroke:#000000;stroke-width:0.8;" x="71.842607" xlink:href="#m2bac9c6f73" y="365.491725"/>
      </g>
     </g>
     <g id="text_1">
      <!-- 76.800 -->
      <g transform="translate(54.347294 380.090162)scale(0.1 -0.1)">
       <defs>
        <path d="M 525 4666 
L 3525 4666 
L 3525 4397 
L 1831 0 
L 1172 0 
L 2766 4134 
L 525 4134 
L 525 4666 
z
" id="DejaVuSans-37" transform="scale(0.015625)"/>
        <path d="M 2113 2584 
Q 1688 2584 1439 2293 
Q 1191 2003 1191 1497 
Q 1191 994 1439 701 
Q 1688 409 2113 409 
Q 2538 409 2786 701 
Q 3034 994 3034 1497 
Q 3034 2003 2786 2293 
Q 2538 2584 2113 2584 
z
M 3366 4563 
L 3366 3988 
Q 3128 4100 2886 4159 
Q 2644 4219 2406 4219 
Q 1781 4219 1451 3797 
Q 1122 3375 1075 2522 
Q 1259 2794 1537 2939 
Q 1816 3084 2150 3084 
Q 2853 3084 3261 2657 
Q 3669 2231 3669 1497 
Q 3669 778 3244 343 
Q 2819 -91 2113 -91 
Q 1303 -91 875 529 
Q 447 1150 447 2328 
Q 447 3434 972 4092 
Q 1497 4750 2381 4750 
Q 2619 4750 2861 4703 
Q 3103 4656 3366 4563 
z
" id="DejaVuSans-36" transform="scale(0.015625)"/>
        <path d="M 684 794 
L 1344 794 
L 1344 0 
L 684 0 
L 684 794 
z
" id="DejaVuSans-2e" transform="scale(0.015625)"/>
        <path d="M 2034 2216 
Q 1584 2216 1326 1975 
Q 1069 1734 1069 1313 
Q 1069 891 1326 650 
Q 1584 409 2034 409 
Q 2484 409 2743 651 
Q 3003 894 3003 1313 
Q 3003 1734 2745 1975 
Q 2488 2216 2034 2216 
z
M 1403 2484 
Q 997 2584 770 2862 
Q 544 3141 544 3541 
Q 544 4100 942 4425 
Q 1341 4750 2034 4750 
Q 2731 4750 3128 4425 
Q 3525 4100 3525 3541 
Q 3525 3141 3298 2862 
Q 3072 2584 2669 2484 
Q 3125 2378 3379 2068 
Q 3634 1759 3634 1313 
Q 3634 634 3220 271 
Q 2806 -91 2034 -91 
Q 1263 -91 848 271 
Q 434 634 434 1313 
Q 434 1759 690 2068 
Q 947 2378 1403 2484 
z
M 1172 3481 
Q 1172 3119 1398 2916 
Q 1625 2713 2034 2713 
Q 2441 2713 2670 2916 
Q 2900 3119 2900 3481 
Q 2900 3844 2670 4047 
Q 2441 4250 2034 4250 
Q 1625 4250 1398 4047 
Q 1172 3844 1172 3481 
z
" id="DejaVuSans-38" transform="scale(0.015625)"/>
        <path d="M 2034 4250 
Q 1547 4250 1301 3770 
Q 1056 3291 1056 2328 
Q 1056 1369 1301 889 
Q 1547 409 2034 409 
Q 2525 409 2770 889 
Q 3016 1369 3016 2328 
Q 3016 3291 2770 3770 
Q 2525 4250 2034 4250 
z
M 2034 4750 
Q 2819 4750 3233 4129 
Q 3647 3509 3647 2328 
Q 3647 1150 3233 529 
Q 2819 -91 2034 -91 
Q 1250 -91 836 529 
Q 422 1150 422 2328 
Q 422 3509 836 4129 
Q 1250 4750 2034 4750 
z
" id="DejaVuSans-30" transform="scale(0.015625)"/>
       </defs>
       <use xlink:href="#DejaVuSans-37"/>
       <use x="63.623047" xlink:href="#DejaVuSans-36"/>
       <use x="127.246094" xlink:href="#DejaVuSans-2e"/>
       <use x="159.033203" xlink:href="#DejaVuSans-38"/>
       <use x="222.65625" xlink:href="#DejaVuSans-30"/>
       <use x="286.279297" xlink:href="#DejaVuSans-30"/>
      </g>
     </g>
    </g>
    <g id="xtick_2">
     <g id="line2d_3">
      <path clip-path="url(#pe8fda7d981)" d="M 146.734803 365.491725 
L 146.734803 22.318125 
" style="fill:none;stroke:#b0b0b0;stroke-linecap:square;stroke-width:0.8;"/>
     </g>
     <g id="line2d_4">
      <g>
       <use style="stroke:#000000;stroke-width:0.8;" x="146.734803" xlink:href="#m2bac9c6f73" y="365.491725"/>
      </g>
     </g>
     <g id="text_2">
      <!-- 76.825 -->
      <g transform="translate(129.23949 380.090162)scale(0.1 -0.1)">
       <defs>
        <path d="M 1228 531 
L 3431 531 
L 3431 0 
L 469 0 
L 469 531 
Q 828 903 1448 1529 
Q 2069 2156 2228 2338 
Q 2531 2678 2651 2914 
Q 2772 3150 2772 3378 
Q 2772 3750 2511 3984 
Q 2250 4219 1831 4219 
Q 1534 4219 1204 4116 
Q 875 4013 500 3803 
L 500 4441 
Q 881 4594 1212 4672 
Q 1544 4750 1819 4750 
Q 2544 4750 2975 4387 
Q 3406 4025 3406 3419 
Q 3406 3131 3298 2873 
Q 3191 2616 2906 2266 
Q 2828 2175 2409 1742 
Q 1991 1309 1228 531 
z
" id="DejaVuSans-32" transform="scale(0.015625)"/>
        <path d="M 691 4666 
L 3169 4666 
L 3169 4134 
L 1269 4134 
L 1269 2991 
Q 1406 3038 1543 3061 
Q 1681 3084 1819 3084 
Q 2600 3084 3056 2656 
Q 3513 2228 3513 1497 
Q 3513 744 3044 326 
Q 2575 -91 1722 -91 
Q 1428 -91 1123 -41 
Q 819 9 494 109 
L 494 744 
Q 775 591 1075 516 
Q 1375 441 1709 441 
Q 2250 441 2565 725 
Q 2881 1009 2881 1497 
Q 2881 1984 2565 2268 
Q 2250 2553 1709 2553 
Q 1456 2553 1204 2497 
Q 953 2441 691 2322 
L 691 4666 
z
" id="DejaVuSans-35" transform="scale(0.015625)"/>
       </defs>
       <use xlink:href="#DejaVuSans-37"/>
       <use x="63.623047" xlink:href="#DejaVuSans-36"/>
       <use x="127.246094" xlink:href="#DejaVuSans-2e"/>
       <use x="159.033203" xlink:href="#DejaVuSans-38"/>
       <use x="222.65625" xlink:href="#DejaVuSans-32"/>
       <use x="286.279297" xlink:href="#DejaVuSans-35"/>
      </g>
     </g>
    </g>
    <g id="xtick_3">
     <g id="line2d_5">
      <path clip-path="url(#pe8fda7d981)" d="M 221.626999 365.491725 
L 221.626999 22.318125 
" style="fill:none;stroke:#b0b0b0;stroke-linecap:square;stroke-width:0.8;"/>
     </g>
     <g id="line2d_6">
      <g>
       <use style="stroke:#000000;stroke-width:0.8;" x="221.626999" xlink:href="#m2bac9c6f73" y="365.491725"/>
      </g>
     </g>
     <g id="text_3">
      <!-- 76.850 -->
      <g transform="translate(204.131686 380.090162)scale(0.1 -0.1)">
       <use xlink:href="#DejaVuSans-37"/>
       <use x="63.623047" xlink:href="#DejaVuSans-36"/>
       <use x="127.246094" xlink:href="#DejaVuSans-2e"/>
       <use x="159.033203" xlink:href="#DejaVuSans-38"/>
       <use x="222.65625" xlink:href="#DejaVuSans-35"/>
       <use x="286.279297" xlink:href="#DejaVuSans-30"/>
      </g>
     </g>
    </g>
    <g id="xtick_4">
     <g id="line2d_7">
      <path clip-path="url(#pe8fda7d981)" d="M 296.519195 365.491725 
L 296.519195 22.318125 
" style="fill:none;stroke:#b0b0b0;stroke-linecap:square;stroke-width:0.8;"/>
     </g>
     <g id="line2d_8">
      <g>
       <use style="stroke:#000000;stroke-width:0.8;" x="296.519195" xlink:href="#m2bac9c6f73" y="365.491725"/>
      </g>
     </g>
     <g id="text_4">
      <!-- 76.875 -->
      <g transform="translate(279.023882 380.090162)scale(0.1 -0.1)">
       <use xlink:href="#DejaVuSans-37"/>
       <use x="63.623047" xlink:href="#DejaVuSans-36"/>
       <use x="127.246094" xlink:href="#DejaVuSans-2e"/>
       <use x="159.033203" xlink:href="#DejaVuSans-38"/>
       <use x="222.65625" xlink:href="#DejaVuSans-37"/>
       <use x="286.279297" xlink:href="#DejaVuSans-35"/>
      </g>
     </g>
    </g>
    <g id="xtick_5">
     <g id="line2d_9">
      <path clip-path="url(#pe8fda7d981)" d="M 371.411391 365.491725 
L 371.411391 22.318125 
" style="fill:none;stroke:#b0b0b0;stroke-linecap:square;stroke-width:0.8;"/>
     </g>
     <g id="line2d_10">
      <g>
       <use style="stroke:#000000;stroke-width:0.8;" x="371.411391" xlink:href="#m2bac9c6f73" y="365.491725"/>
      </g>
     </g>
     <g id="text_5">
      <!-- 76.900 -->
      <g transform="translate(353.916078 380.090162)scale(0.1 -0.1)">
       <defs>
        <path d="M 703 97 
L 703 672 
Q 941 559 1184 500 
Q 1428 441 1663 441 
Q 2288 441 2617 861 
Q 2947 1281 2994 2138 
Q 2813 1869 2534 1725 
Q 2256 1581 1919 1581 
Q 1219 1581 811 2004 
Q 403 2428 403 3163 
Q 403 3881 828 4315 
Q 1253 4750 1959 4750 
Q 2769 4750 3195 4129 
Q 3622 3509 3622 2328 
Q 3622 1225 3098 567 
Q 2575 -91 1691 -91 
Q 1453 -91 1209 -44 
Q 966 3 703 97 
z
M 1959 2075 
Q 2384 2075 2632 2365 
Q 2881 2656 2881 3163 
Q 2881 3666 2632 3958 
Q 2384 4250 1959 4250 
Q 1534 4250 1286 3958 
Q 1038 3666 1038 3163 
Q 1038 2656 1286 2365 
Q 1534 2075 1959 2075 
z
" id="DejaVuSans-39" transform="scale(0.015625)"/>
       </defs>
       <use xlink:href="#DejaVuSans-37"/>
       <use x="63.623047" xlink:href="#DejaVuSans-36"/>
       <use x="127.246094" xlink:href="#DejaVuSans-2e"/>
       <use x="159.033203" xlink:href="#DejaVuSans-39"/>
       <use x="222.65625" xlink:href="#DejaVuSans-30"/>
       <use x="286.279297" xlink:href="#DejaVuSans-30"/>
      </g>
     </g>
    </g>
    <g id="xtick_6">
     <g id="line2d_11">
      <path clip-path="url(#pe8fda7d981)" d="M 446.303587 365.491725 
L 446.303587 22.318125 
" style="fill:none;stroke:#b0b0b0;stroke-linecap:square;stroke-width:0.8;"/>
     </g>
     <g id="line2d_12">
      <g>
       <use style="stroke:#000000;stroke-width:0.8;" x="446.303587" xlink:href="#m2bac9c6f73" y="365.491725"/>
      </g>
     </g>
     <g id="text_6">
      <!-- 76.925 -->
      <g transform="translate(428.808274 380.090162)scale(0.1 -0.1)">
       <use xlink:href="#DejaVuSans-37"/>
       <use x="63.623047" xlink:href="#DejaVuSans-36"/>
       <use x="127.246094" xlink:href="#DejaVuSans-2e"/>
       <use x="159.033203" xlink:href="#DejaVuSans-39"/>
       <use x="222.65625" xlink:href="#DejaVuSans-32"/>
       <use x="286.279297" xlink:href="#DejaVuSans-35"/>
      </g>
     </g>
    </g>
    <g id="xtick_7">
     <g id="line2d_13">
      <path clip-path="url(#pe8fda7d981)" d="M 521.195783 365.491725 
L 521.195783 22.318125 
" style="fill:none;stroke:#b0b0b0;stroke-linecap:square;stroke-width:0.8;"/>
     </g>
     <g id="line2d_14">
      <g>
       <use style="stroke:#000000;stroke-width:0.8;" x="521.195783" xlink:href="#m2bac9c6f73" y="365.491725"/>
      </g>
     </g>
     <g id="text_7">
      <!-- 76.950 -->
      <g transform="translate(503.70047 380.090162)scale(0.1 -0.1)">
       <use xlink:href="#DejaVuSans-37"/>
       <use x="63.623047" xlink:href="#DejaVuSans-36"/>
       <use x="127.246094" xlink:href="#DejaVuSans-2e"/>
       <use x="159.033203" xlink:href="#DejaVuSans-39"/>
       <use x="222.65625" xlink:href="#DejaVuSans-35"/>
       <use x="286.279297" xlink:href="#DejaVuSans-30"/>
      </g>
     </g>
    </g>
    <g id="xtick_8">
     <g id="line2d_15">
      <path clip-path="url(#pe8fda7d981)" d="M 596.087979 365.491725 
L 596.087979 22.318125 
" style="fill:none;stroke:#b0b0b0;stroke-linecap:square;stroke-width:0.8;"/>
     </g>
     <g id="line2d_16">
      <g>
       <use style="stroke:#000000;stroke-width:0.8;" x="596.087979" xlink:href="#m2bac9c6f73" y="365.491725"/>
      </g>
     </g>
     <g id="text_8">
      <!-- 76.975 -->
      <g transform="translate(578.592666 380.090162)scale(0.1 -0.1)">
       <use xlink:href="#DejaVuSans-37"/>
       <use x="63.623047" xlink:href="#DejaVuSans-36"/>
       <use x="127.246094" xlink:href="#DejaVuSans-2e"/>
       <use x="159.033203" xlink:href="#DejaVuSans-39"/>
       <use x="222.65625" xlink:href="#DejaVuSans-37"/>
       <use x="286.279297" xlink:href="#DejaVuSans-35"/>
      </g>
     </g>
    </g>
    <g id="text_9">
     <!-- CMRR/dB -->
     <g transform="translate(306.992281 393.768287)scale(0.1 -0.1)">
      <defs>
       <path d="M 4122 4306 
L 4122 3641 
Q 3803 3938 3442 4084 
Q 3081 4231 2675 4231 
Q 1875 4231 1450 3742 
Q 1025 3253 1025 2328 
Q 1025 1406 1450 917 
Q 1875 428 2675 428 
Q 3081 428 3442 575 
Q 3803 722 4122 1019 
L 4122 359 
Q 3791 134 3420 21 
Q 3050 -91 2638 -91 
Q 1578 -91 968 557 
Q 359 1206 359 2328 
Q 359 3453 968 4101 
Q 1578 4750 2638 4750 
Q 3056 4750 3426 4639 
Q 3797 4528 4122 4306 
z
" id="DejaVuSans-43" transform="scale(0.015625)"/>
       <path d="M 628 4666 
L 1569 4666 
L 2759 1491 
L 3956 4666 
L 4897 4666 
L 4897 0 
L 4281 0 
L 4281 4097 
L 3078 897 
L 2444 897 
L 1241 4097 
L 1241 0 
L 628 0 
L 628 4666 
z
" id="DejaVuSans-4d" transform="scale(0.015625)"/>
       <path d="M 2841 2188 
Q 3044 2119 3236 1894 
Q 3428 1669 3622 1275 
L 4263 0 
L 3584 0 
L 2988 1197 
Q 2756 1666 2539 1819 
Q 2322 1972 1947 1972 
L 1259 1972 
L 1259 0 
L 628 0 
L 628 4666 
L 2053 4666 
Q 2853 4666 3247 4331 
Q 3641 3997 3641 3322 
Q 3641 2881 3436 2590 
Q 3231 2300 2841 2188 
z
M 1259 4147 
L 1259 2491 
L 2053 2491 
Q 2509 2491 2742 2702 
Q 2975 2913 2975 3322 
Q 2975 3731 2742 3939 
Q 2509 4147 2053 4147 
L 1259 4147 
z
" id="DejaVuSans-52" transform="scale(0.015625)"/>
       <path d="M 1625 4666 
L 2156 4666 
L 531 -594 
L 0 -594 
L 1625 4666 
z
" id="DejaVuSans-2f" transform="scale(0.015625)"/>
       <path d="M 2906 2969 
L 2906 4863 
L 3481 4863 
L 3481 0 
L 2906 0 
L 2906 525 
Q 2725 213 2448 61 
Q 2172 -91 1784 -91 
Q 1150 -91 751 415 
Q 353 922 353 1747 
Q 353 2572 751 3078 
Q 1150 3584 1784 3584 
Q 2172 3584 2448 3432 
Q 2725 3281 2906 2969 
z
M 947 1747 
Q 947 1113 1208 752 
Q 1469 391 1925 391 
Q 2381 391 2643 752 
Q 2906 1113 2906 1747 
Q 2906 2381 2643 2742 
Q 2381 3103 1925 3103 
Q 1469 3103 1208 2742 
Q 947 2381 947 1747 
z
" id="DejaVuSans-64" transform="scale(0.015625)"/>
       <path d="M 1259 2228 
L 1259 519 
L 2272 519 
Q 2781 519 3026 730 
Q 3272 941 3272 1375 
Q 3272 1813 3026 2020 
Q 2781 2228 2272 2228 
L 1259 2228 
z
M 1259 4147 
L 1259 2741 
L 2194 2741 
Q 2656 2741 2882 2914 
Q 3109 3088 3109 3444 
Q 3109 3797 2882 3972 
Q 2656 4147 2194 4147 
L 1259 4147 
z
M 628 4666 
L 2241 4666 
Q 2963 4666 3353 4366 
Q 3744 4066 3744 3513 
Q 3744 3084 3544 2831 
Q 3344 2578 2956 2516 
Q 3422 2416 3680 2098 
Q 3938 1781 3938 1306 
Q 3938 681 3513 340 
Q 3088 0 2303 0 
L 628 0 
L 628 4666 
z
" id="DejaVuSans-42" transform="scale(0.015625)"/>
      </defs>
      <use xlink:href="#DejaVuSans-43"/>
      <use x="69.824219" xlink:href="#DejaVuSans-4d"/>
      <use x="156.103516" xlink:href="#DejaVuSans-52"/>
      <use x="225.585938" xlink:href="#DejaVuSans-52"/>
      <use x="295.068359" xlink:href="#DejaVuSans-2f"/>
      <use x="328.759766" xlink:href="#DejaVuSans-64"/>
      <use x="392.236328" xlink:href="#DejaVuSans-42"/>
     </g>
    </g>
   </g>
   <g id="matplotlib.axis_2">
    <g id="ytick_1">
     <g id="line2d_17">
      <path clip-path="url(#pe8fda7d981)" d="M 43.78125 349.892925 
L 616.28925 349.892925 
" style="fill:none;stroke:#b0b0b0;stroke-linecap:square;stroke-width:0.8;"/>
     </g>
     <g id="line2d_18">
      <defs>
       <path d="M 0 0 
L -3.5 0 
" id="m1cb59e49d4" style="stroke:#000000;stroke-width:0.8;"/>
      </defs>
      <g>
       <use style="stroke:#000000;stroke-width:0.8;" x="43.78125" xlink:href="#m1cb59e49d4" y="349.892925"/>
      </g>
     </g>
     <g id="text_10">
      <!-- 0.0 -->
      <g transform="translate(20.878125 353.692144)scale(0.1 -0.1)">
       <use xlink:href="#DejaVuSans-30"/>
       <use x="63.623047" xlink:href="#DejaVuSans-2e"/>
       <use x="95.410156" xlink:href="#DejaVuSans-30"/>
      </g>
     </g>
    </g>
    <g id="ytick_2">
     <g id="line2d_19">
      <path clip-path="url(#pe8fda7d981)" d="M 43.78125 289.172134 
L 616.28925 289.172134 
" style="fill:none;stroke:#b0b0b0;stroke-linecap:square;stroke-width:0.8;"/>
     </g>
     <g id="line2d_20">
      <g>
       <use style="stroke:#000000;stroke-width:0.8;" x="43.78125" xlink:href="#m1cb59e49d4" y="289.172134"/>
      </g>
     </g>
     <g id="text_11">
      <!-- 0.2 -->
      <g transform="translate(20.878125 292.971353)scale(0.1 -0.1)">
       <use xlink:href="#DejaVuSans-30"/>
       <use x="63.623047" xlink:href="#DejaVuSans-2e"/>
       <use x="95.410156" xlink:href="#DejaVuSans-32"/>
      </g>
     </g>
    </g>
    <g id="ytick_3">
     <g id="line2d_21">
      <path clip-path="url(#pe8fda7d981)" d="M 43.78125 228.451343 
L 616.28925 228.451343 
" style="fill:none;stroke:#b0b0b0;stroke-linecap:square;stroke-width:0.8;"/>
     </g>
     <g id="line2d_22">
      <g>
       <use style="stroke:#000000;stroke-width:0.8;" x="43.78125" xlink:href="#m1cb59e49d4" y="228.451343"/>
      </g>
     </g>
     <g id="text_12">
      <!-- 0.4 -->
      <g transform="translate(20.878125 232.250562)scale(0.1 -0.1)">
       <defs>
        <path d="M 2419 4116 
L 825 1625 
L 2419 1625 
L 2419 4116 
z
M 2253 4666 
L 3047 4666 
L 3047 1625 
L 3713 1625 
L 3713 1100 
L 3047 1100 
L 3047 0 
L 2419 0 
L 2419 1100 
L 313 1100 
L 313 1709 
L 2253 4666 
z
" id="DejaVuSans-34" transform="scale(0.015625)"/>
       </defs>
       <use xlink:href="#DejaVuSans-30"/>
       <use x="63.623047" xlink:href="#DejaVuSans-2e"/>
       <use x="95.410156" xlink:href="#DejaVuSans-34"/>
      </g>
     </g>
    </g>
    <g id="ytick_4">
     <g id="line2d_23">
      <path clip-path="url(#pe8fda7d981)" d="M 43.78125 167.730552 
L 616.28925 167.730552 
" style="fill:none;stroke:#b0b0b0;stroke-linecap:square;stroke-width:0.8;"/>
     </g>
     <g id="line2d_24">
      <g>
       <use style="stroke:#000000;stroke-width:0.8;" x="43.78125" xlink:href="#m1cb59e49d4" y="167.730552"/>
      </g>
     </g>
     <g id="text_13">
      <!-- 0.6 -->
      <g transform="translate(20.878125 171.52977)scale(0.1 -0.1)">
       <use xlink:href="#DejaVuSans-30"/>
       <use x="63.623047" xlink:href="#DejaVuSans-2e"/>
       <use x="95.410156" xlink:href="#DejaVuSans-36"/>
      </g>
     </g>
    </g>
    <g id="ytick_5">
     <g id="line2d_25">
      <path clip-path="url(#pe8fda7d981)" d="M 43.78125 107.009761 
L 616.28925 107.009761 
" style="fill:none;stroke:#b0b0b0;stroke-linecap:square;stroke-width:0.8;"/>
     </g>
     <g id="line2d_26">
      <g>
       <use style="stroke:#000000;stroke-width:0.8;" x="43.78125" xlink:href="#m1cb59e49d4" y="107.009761"/>
      </g>
     </g>
     <g id="text_14">
      <!-- 0.8 -->
      <g transform="translate(20.878125 110.808979)scale(0.1 -0.1)">
       <use xlink:href="#DejaVuSans-30"/>
       <use x="63.623047" xlink:href="#DejaVuSans-2e"/>
       <use x="95.410156" xlink:href="#DejaVuSans-38"/>
      </g>
     </g>
    </g>
    <g id="ytick_6">
     <g id="line2d_27">
      <path clip-path="url(#pe8fda7d981)" d="M 43.78125 46.288969 
L 616.28925 46.288969 
" style="fill:none;stroke:#b0b0b0;stroke-linecap:square;stroke-width:0.8;"/>
     </g>
     <g id="line2d_28">
      <g>
       <use style="stroke:#000000;stroke-width:0.8;" x="43.78125" xlink:href="#m1cb59e49d4" y="46.288969"/>
      </g>
     </g>
     <g id="text_15">
      <!-- 1.0 -->
      <g transform="translate(20.878125 50.088188)scale(0.1 -0.1)">
       <defs>
        <path d="M 794 531 
L 1825 531 
L 1825 4091 
L 703 3866 
L 703 4441 
L 1819 4666 
L 2450 4666 
L 2450 531 
L 3481 531 
L 3481 0 
L 794 0 
L 794 531 
z
" id="DejaVuSans-31" transform="scale(0.015625)"/>
       </defs>
       <use xlink:href="#DejaVuSans-31"/>
       <use x="63.623047" xlink:href="#DejaVuSans-2e"/>
       <use x="95.410156" xlink:href="#DejaVuSans-30"/>
      </g>
     </g>
    </g>
    <g id="text_16">
     <!-- CDF -->
     <g transform="translate(14.798437 204.122112)rotate(-90)scale(0.1 -0.1)">
      <defs>
       <path d="M 1259 4147 
L 1259 519 
L 2022 519 
Q 2988 519 3436 956 
Q 3884 1394 3884 2338 
Q 3884 3275 3436 3711 
Q 2988 4147 2022 4147 
L 1259 4147 
z
M 628 4666 
L 1925 4666 
Q 3281 4666 3915 4102 
Q 4550 3538 4550 2338 
Q 4550 1131 3912 565 
Q 3275 0 1925 0 
L 628 0 
L 628 4666 
z
" id="DejaVuSans-44" transform="scale(0.015625)"/>
       <path d="M 628 4666 
L 3309 4666 
L 3309 4134 
L 1259 4134 
L 1259 2759 
L 3109 2759 
L 3109 2228 
L 1259 2228 
L 1259 0 
L 628 0 
L 628 4666 
z
" id="DejaVuSans-46" transform="scale(0.015625)"/>
      </defs>
      <use xlink:href="#DejaVuSans-43"/>
      <use x="69.824219" xlink:href="#DejaVuSans-44"/>
      <use x="146.826172" xlink:href="#DejaVuSans-46"/>
     </g>
    </g>
   </g>
   <g id="line2d_29">
    <path clip-path="url(#pe8fda7d981)" d="M 70.128474 349.631222 
L 70.90256 349.592584 
L 72.126598 346.128305 
L 76.555423 345.542021 
L 77.023349 345.142254 
L 78.08592 345.14014 
L 79.184139 338.466833 
L 79.274309 338.45624 
L 83.650111 338.356003 
L 84.838799 338.296887 
L 87.558584 338.284547 
L 87.738625 338.141117 
L 90.94521 338.067264 
L 91.70192 337.908086 
L 94.188042 337.878003 
L 94.31416 337.486141 
L 96.079819 337.469292 
L 96.097793 337.218888 
L 96.494422 337.218517 
L 99.089287 337.093632 
L 100.530812 328.643269 
L 102.639476 328.643204 
L 102.837791 328.360709 
L 105.72144 328.268173 
L 107.686311 328.163784 
L 109.344724 327.341088 
L 116.105992 327.197222 
L 116.791106 326.741247 
L 118.630757 326.684459 
L 119.117557 325.493276 
L 120.307743 325.493153 
L 121.462282 325.226032 
L 122.165669 325.220043 
L 122.327736 323.74702 
L 123.716836 323.740608 
L 123.951099 322.628504 
L 124.348028 322.49482 
L 126.783222 322.488425 
L 127.75742 322.286118 
L 129.05635 322.268429 
L 129.525475 321.585804 
L 130.337306 321.519293 
L 139.594581 321.465537 
L 139.847417 321.254037 
L 140.045732 321.235237 
L 140.35249 277.25919 
L 140.749718 277.258671 
L 140.749718 276.639088 
L 142.157691 276.532372 
L 142.19364 275.557286 
L 144.738776 275.501359 
L 146.038605 275.501323 
L 146.147049 275.122876 
L 147.248264 275.094578 
L 151.816388 275.087448 
L 151.888584 273.27937 
L 152.917903 273.22958 
L 154.579311 272.950001 
L 157.757736 272.943861 
L 158.534518 272.310794 
L 162.797382 272.290952 
L 164.621755 272.176639 
L 165.127727 272.176623 
L 165.760117 271.997293 
L 175.065922 271.696912 
L 175.355305 271.393722 
L 178.536426 271.315805 
L 179.349755 271.102834 
L 179.458199 270.768095 
L 180.307776 270.767732 
L 180.361998 269.581656 
L 182.838533 269.476041 
L 182.983225 269.461897 
L 183.525744 260.082874 
L 187.629836 259.979844 
L 187.684058 259.852699 
L 194.357252 259.734241 
L 196.67232 259.718825 
L 199.27737 259.466925 
L 201.502567 259.46171 
L 202.732597 259.100708 
L 202.768844 258.873202 
L 203.02228 258.864893 
L 203.148698 258.64555 
L 205.319972 258.549825 
L 205.428716 258.48136 
L 205.645603 258.481063 
L 206.857958 258.282955 
L 207.473273 256.027258 
L 219.310433 255.930583 
L 219.401203 255.835342 
L 226.10046 255.728384 
L 228.056344 255.596868 
L 228.979915 255.555766 
L 229.106632 254.840025 
L 230.66409 254.820381 
L 230.954073 254.67094 
L 231.533439 254.670939 
L 231.569687 254.163354 
L 232.964479 253.831609 
L 234.268802 253.831159 
L 234.775972 253.642214 
L 236.859173 253.406569 
L 236.98589 253.36922 
L 237.765069 253.353028 
L 238.471452 252.974827 
L 239.721553 252.874988 
L 239.921065 248.28387 
L 240.337766 248.282097 
L 240.790714 211.280827 
L 242.874514 211.260722 
L 244.179136 210.713727 
L 244.487093 210.481783 
L 248.03908 210.287248 
L 249.271805 209.897615 
L 251.60994 209.873664 
L 251.881649 209.7466 
L 254.292578 209.637017 
L 255.199073 209.54523 
L 255.525304 201.441043 
L 258.988319 201.119562 
L 260.112601 201.093631 
L 260.565848 200.145669 
L 261.69013 200.05603 
L 262.687394 199.816455 
L 264.011189 197.613591 
L 270.141564 197.572332 
L 270.812898 197.368918 
L 271.483932 197.325218 
L 272.119018 194.553888 
L 273.425138 194.527596 
L 273.842437 194.188766 
L 274.078198 194.188754 
L 274.259437 194.042811 
L 274.586266 193.946941 
L 276.636216 193.83017 
L 276.654489 191.925757 
L 277.45284 190.490492 
L 278.650216 190.345328 
L 279.339824 188.033944 
L 280.465004 187.9927 
L 282.769587 187.867953 
L 284.729665 187.834507 
L 284.89293 187.611929 
L 289.067721 187.598883 
L 289.975414 185.711111 
L 293.497445 185.666362 
L 294.350616 184.793812 
L 295.222362 184.79377 
L 296.511406 183.968177 
L 297.183339 183.878145 
L 297.32863 183.346596 
L 298.962777 183.311119 
L 299.761727 176.336227 
L 300.106831 176.335726 
L 301.523491 175.64179 
L 301.686756 174.365882 
L 304.120453 174.310457 
L 306.518202 174.11007 
L 307.26293 173.902905 
L 308.570847 173.852359 
L 308.716138 173.606371 
L 311.731897 173.549401 
L 311.949983 173.306321 
L 312.367881 164.718042 
L 314.11227 164.687948 
L 314.11227 164.58951 
L 315.874634 164.562323 
L 318.36435 164.460535 
L 318.873018 164.164141 
L 320.617706 164.134398 
L 322.217104 162.460566 
L 322.58078 162.460389 
L 322.944157 161.232052 
L 326.08903 161.121436 
L 327.943062 160.874394 
L 328.397807 158.567009 
L 328.434055 157.690792 
L 333.561175 157.583412 
L 333.961398 157.569253 
L 334.343349 155.506887 
L 340.10825 155.273915 
L 340.72656 154.670545 
L 340.999467 154.56559 
L 341.96348 154.564233 
L 341.999728 153.337483 
L 343.618897 153.2055 
L 345.237767 153.150448 
L 345.383357 146.35417 
L 346.019941 145.916498 
L 347.766427 145.841023 
L 350.113548 142.806047 
L 352.169788 142.764393 
L 352.89774 129.00933 
L 354.371619 128.963182 
L 354.735595 128.689642 
L 355.081297 128.585387 
L 357.647404 128.542455 
L 357.683951 128.27404 
L 359.321993 128.234722 
L 359.558652 127.994664 
L 362.980627 127.934676 
L 363.181038 127.626579 
L 370.463855 127.538101 
L 370.572898 127.250949 
L 371.155559 126.992225 
L 373.960122 126.856351 
L 374.051191 125.927096 
L 377.019918 125.90315 
L 377.110987 123.476006 
L 378.076497 123.47511 
L 379.242119 123.220974 
L 379.479078 123.202029 
L 379.606395 121.939213 
L 380.93618 121.92056 
L 381.337003 121.750482 
L 384.561562 121.744308 
L 386.565677 116.892164 
L 389.135078 116.808439 
L 391.686206 116.652419 
L 393.454261 116.60778 
L 393.654673 116.468439 
L 398.102071 116.302729 
L 398.357303 114.066135 
L 399.815604 113.956818 
L 402.969464 113.954805 
L 403.097081 113.678619 
L 405.66798 113.637413 
L 405.905238 113.153108 
L 407.692166 113.146199 
L 407.801509 112.807717 
L 409.333204 112.772315 
L 409.533915 111.993797 
L 413.327355 111.720678 
L 413.801572 111.585817 
L 416.337122 111.546882 
L 416.501286 110.856225 
L 417.030324 110.84974 
L 418.380181 110.563847 
L 418.745056 110.490558 
L 421.062221 110.476219 
L 421.664354 110.086594 
L 426.262435 110.067736 
L 426.444873 108.899087 
L 427.795329 108.610747 
L 428.908526 108.610739 
L 431.51837 107.999372 
L 432.94222 107.990111 
L 433.216026 98.063542 
L 433.708816 97.984977 
L 436.702707 97.951298 
L 436.775802 95.866036 
L 441.157295 95.849719 
L 441.833122 92.105567 
L 442.745908 92.018915 
L 444.608627 91.992207 
L 444.845885 91.873618 
L 446.946162 91.676827 
L 448.498527 91.590816 
L 448.644717 87.327005 
L 457.358274 87.234804 
L 458.088922 86.636711 
L 458.984333 86.563244 
L 459.148797 85.854118 
L 462.67532 85.755357 
L 464.246858 85.653348 
L 465.635959 85.425051 
L 467.353986 85.422489 
L 467.829102 85.307846 
L 468.578623 80.459279 
L 472.17944 80.352894 
L 472.545213 80.170919 
L 475.250918 80.155601 
L 475.85425 79.866441 
L 482.693106 79.856355 
L 483.296437 78.552679 
L 485.39971 78.482993 
L 486.405961 77.243106 
L 486.954472 75.516172 
L 487.503282 75.449479 
L 487.722866 71.027639 
L 488.564354 70.136438 
L 491.0337 70.036511 
L 491.930309 69.383155 
L 495.552695 69.3205 
L 496.559246 69.320293 
L 496.77883 66.512584 
L 507.283809 66.449072 
L 507.723276 65.329992 
L 508.254112 65.131976 
L 509.407452 65.009626 
L 515.57767 64.920272 
L 515.77898 64.098617 
L 516.163626 60.726852 
L 519.093409 60.183158 
L 519.478055 59.971769 
L 520.430385 59.970497 
L 520.503779 59.284625 
L 521.859028 59.233336 
L 521.913849 58.576708 
L 523.324219 58.575379 
L 523.58065 58.461243 
L 523.800533 57.820655 
L 528.087063 57.693997 
L 530.890128 57.48934 
L 530.908402 57.140271 
L 533.455336 57.075975 
L 533.565278 56.387454 
L 536.405789 56.37549 
L 536.588825 56.192719 
L 538.366766 56.133311 
L 543.572073 56.129887 
L 543.993866 55.587546 
L 545.936869 55.53498 
L 546.505151 54.837326 
L 547.183674 54.488848 
L 548.650363 54.414697 
L 549.658712 52.428772 
L 550.850396 52.371745 
L 551.400704 52.263582 
L 551.859044 52.023364 
L 552.482447 52.023355 
L 552.794298 51.075667 
L 559.616678 50.974497 
L 560.166986 50.620329 
L 560.625326 50.620053 
L 560.643899 50.446512 
L 561.542605 49.915068 
L 563.909199 49.867102 
L 563.945746 49.795986 
L 564.697963 49.778977 
L 565.101483 49.677241 
L 567.211345 49.60439 
L 568.036957 49.514292 
L 568.293987 49.325203 
L 570.367303 49.313642 
L 571.431671 39.837511 
L 571.780369 39.254228 
L 572.40437 39.080913 
L 572.60628 38.576922 
L 572.899857 38.295176 
L 577.598294 38.22564 
L 577.634841 38.158491 
L 584.629173 38.029627 
L 585.657293 37.973082 
L 589.127798 37.916925 
L 589.127798 37.916925 
" style="fill:none;stroke:#1f77b4;stroke-linecap:square;stroke-width:1.5;"/>
   </g>
   <g id="line2d_30">
    <defs>
     <path d="M -3 3 
L 3 -3 
M -3 -3 
L 3 3 
" id="md7528be52b" style="stroke:#ff0000;"/>
    </defs>
    <g clip-path="url(#pe8fda7d981)">
     <use style="fill:#ff0000;stroke:#ff0000;" x="69.804341" xlink:href="#md7528be52b" y="349.892925"/>
     <use style="fill:#ff0000;stroke:#ff0000;" x="590.266159" xlink:href="#md7528be52b" y="46.288969"/>
    </g>
   </g>
   <g id="patch_3">
    <path d="M 43.78125 365.491725 
L 43.78125 22.318125 
" style="fill:none;stroke:#000000;stroke-linecap:square;stroke-linejoin:miter;stroke-width:0.8;"/>
   </g>
   <g id="patch_4">
    <path d="M 616.28925 365.491725 
L 616.28925 22.318125 
" style="fill:none;stroke:#000000;stroke-linecap:square;stroke-linejoin:miter;stroke-width:0.8;"/>
   </g>
   <g id="patch_5">
    <path d="M 43.78125 365.491725 
L 616.28925 365.491725 
" style="fill:none;stroke:#000000;stroke-linecap:square;stroke-linejoin:miter;stroke-width:0.8;"/>
   </g>
   <g id="patch_6">
    <path d="M 43.78125 22.318125 
L 616.28925 22.318125 
" style="fill:none;stroke:#000000;stroke-linecap:square;stroke-linejoin:miter;stroke-width:0.8;"/>
   </g>
   <g id="text_17">
    <!-- Tolerance Analysis of cmrr.net -->
    <g transform="translate(240.022125 16.318125)scale(0.12 -0.12)">
     <defs>
      <path d="M -19 4666 
L 3928 4666 
L 3928 4134 
L 2272 4134 
L 2272 0 
L 1638 0 
L 1638 4134 
L -19 4134 
L -19 4666 
z
" id="DejaVuSans-54" transform="scale(0.015625)"/>
      <path d="M 1959 3097 
Q 1497 3097 1228 2736 
Q 959 2375 959 1747 
Q 959 1119 1226 758 
Q 1494 397 1959 397 
Q 2419 397 2687 759 
Q 2956 1122 2956 1747 
Q 2956 2369 2687 2733 
Q 2419 3097 1959 3097 
z
M 1959 3584 
Q 2709 3584 3137 3096 
Q 3566 2609 3566 1747 
Q 3566 888 3137 398 
Q 2709 -91 1959 -91 
Q 1206 -91 779 398 
Q 353 888 353 1747 
Q 353 2609 779 3096 
Q 1206 3584 1959 3584 
z
" id="DejaVuSans-6f" transform="scale(0.015625)"/>
      <path d="M 603 4863 
L 1178 4863 
L 1178 0 
L 603 0 
L 603 4863 
z
" id="DejaVuSans-6c" transform="scale(0.015625)"/>
      <path d="M 3597 1894 
L 3597 1613 
L 953 1613 
Q 991 1019 1311 708 
Q 1631 397 2203 397 
Q 2534 397 2845 478 
Q 3156 559 3463 722 
L 3463 178 
Q 3153 47 2828 -22 
Q 2503 -91 2169 -91 
Q 1331 -91 842 396 
Q 353 884 353 1716 
Q 353 2575 817 3079 
Q 1281 3584 2069 3584 
Q 2775 3584 3186 3129 
Q 3597 2675 3597 1894 
z
M 3022 2063 
Q 3016 2534 2758 2815 
Q 2500 3097 2075 3097 
Q 1594 3097 1305 2825 
Q 1016 2553 972 2059 
L 3022 2063 
z
" id="DejaVuSans-65" transform="scale(0.015625)"/>
      <path d="M 2631 2963 
Q 2534 3019 2420 3045 
Q 2306 3072 2169 3072 
Q 1681 3072 1420 2755 
Q 1159 2438 1159 1844 
L 1159 0 
L 581 0 
L 581 3500 
L 1159 3500 
L 1159 2956 
Q 1341 3275 1631 3429 
Q 1922 3584 2338 3584 
Q 2397 3584 2469 3576 
Q 2541 3569 2628 3553 
L 2631 2963 
z
" id="DejaVuSans-72" transform="scale(0.015625)"/>
      <path d="M 2194 1759 
Q 1497 1759 1228 1600 
Q 959 1441 959 1056 
Q 959 750 1161 570 
Q 1363 391 1709 391 
Q 2188 391 2477 730 
Q 2766 1069 2766 1631 
L 2766 1759 
L 2194 1759 
z
M 3341 1997 
L 3341 0 
L 2766 0 
L 2766 531 
Q 2569 213 2275 61 
Q 1981 -91 1556 -91 
Q 1019 -91 701 211 
Q 384 513 384 1019 
Q 384 1609 779 1909 
Q 1175 2209 1959 2209 
L 2766 2209 
L 2766 2266 
Q 2766 2663 2505 2880 
Q 2244 3097 1772 3097 
Q 1472 3097 1187 3025 
Q 903 2953 641 2809 
L 641 3341 
Q 956 3463 1253 3523 
Q 1550 3584 1831 3584 
Q 2591 3584 2966 3190 
Q 3341 2797 3341 1997 
z
" id="DejaVuSans-61" transform="scale(0.015625)"/>
      <path d="M 3513 2113 
L 3513 0 
L 2938 0 
L 2938 2094 
Q 2938 2591 2744 2837 
Q 2550 3084 2163 3084 
Q 1697 3084 1428 2787 
Q 1159 2491 1159 1978 
L 1159 0 
L 581 0 
L 581 3500 
L 1159 3500 
L 1159 2956 
Q 1366 3272 1645 3428 
Q 1925 3584 2291 3584 
Q 2894 3584 3203 3211 
Q 3513 2838 3513 2113 
z
" id="DejaVuSans-6e" transform="scale(0.015625)"/>
      <path d="M 3122 3366 
L 3122 2828 
Q 2878 2963 2633 3030 
Q 2388 3097 2138 3097 
Q 1578 3097 1268 2742 
Q 959 2388 959 1747 
Q 959 1106 1268 751 
Q 1578 397 2138 397 
Q 2388 397 2633 464 
Q 2878 531 3122 666 
L 3122 134 
Q 2881 22 2623 -34 
Q 2366 -91 2075 -91 
Q 1284 -91 818 406 
Q 353 903 353 1747 
Q 353 2603 823 3093 
Q 1294 3584 2113 3584 
Q 2378 3584 2631 3529 
Q 2884 3475 3122 3366 
z
" id="DejaVuSans-63" transform="scale(0.015625)"/>
      <path id="DejaVuSans-20" transform="scale(0.015625)"/>
      <path d="M 2188 4044 
L 1331 1722 
L 3047 1722 
L 2188 4044 
z
M 1831 4666 
L 2547 4666 
L 4325 0 
L 3669 0 
L 3244 1197 
L 1141 1197 
L 716 0 
L 50 0 
L 1831 4666 
z
" id="DejaVuSans-41" transform="scale(0.015625)"/>
      <path d="M 2059 -325 
Q 1816 -950 1584 -1140 
Q 1353 -1331 966 -1331 
L 506 -1331 
L 506 -850 
L 844 -850 
Q 1081 -850 1212 -737 
Q 1344 -625 1503 -206 
L 1606 56 
L 191 3500 
L 800 3500 
L 1894 763 
L 2988 3500 
L 3597 3500 
L 2059 -325 
z
" id="DejaVuSans-79" transform="scale(0.015625)"/>
      <path d="M 2834 3397 
L 2834 2853 
Q 2591 2978 2328 3040 
Q 2066 3103 1784 3103 
Q 1356 3103 1142 2972 
Q 928 2841 928 2578 
Q 928 2378 1081 2264 
Q 1234 2150 1697 2047 
L 1894 2003 
Q 2506 1872 2764 1633 
Q 3022 1394 3022 966 
Q 3022 478 2636 193 
Q 2250 -91 1575 -91 
Q 1294 -91 989 -36 
Q 684 19 347 128 
L 347 722 
Q 666 556 975 473 
Q 1284 391 1588 391 
Q 1994 391 2212 530 
Q 2431 669 2431 922 
Q 2431 1156 2273 1281 
Q 2116 1406 1581 1522 
L 1381 1569 
Q 847 1681 609 1914 
Q 372 2147 372 2553 
Q 372 3047 722 3315 
Q 1072 3584 1716 3584 
Q 2034 3584 2315 3537 
Q 2597 3491 2834 3397 
z
" id="DejaVuSans-73" transform="scale(0.015625)"/>
      <path d="M 603 3500 
L 1178 3500 
L 1178 0 
L 603 0 
L 603 3500 
z
M 603 4863 
L 1178 4863 
L 1178 4134 
L 603 4134 
L 603 4863 
z
" id="DejaVuSans-69" transform="scale(0.015625)"/>
      <path d="M 2375 4863 
L 2375 4384 
L 1825 4384 
Q 1516 4384 1395 4259 
Q 1275 4134 1275 3809 
L 1275 3500 
L 2222 3500 
L 2222 3053 
L 1275 3053 
L 1275 0 
L 697 0 
L 697 3053 
L 147 3053 
L 147 3500 
L 697 3500 
L 697 3744 
Q 697 4328 969 4595 
Q 1241 4863 1831 4863 
L 2375 4863 
z
" id="DejaVuSans-66" transform="scale(0.015625)"/>
      <path d="M 3328 2828 
Q 3544 3216 3844 3400 
Q 4144 3584 4550 3584 
Q 5097 3584 5394 3201 
Q 5691 2819 5691 2113 
L 5691 0 
L 5113 0 
L 5113 2094 
Q 5113 2597 4934 2840 
Q 4756 3084 4391 3084 
Q 3944 3084 3684 2787 
Q 3425 2491 3425 1978 
L 3425 0 
L 2847 0 
L 2847 2094 
Q 2847 2600 2669 2842 
Q 2491 3084 2119 3084 
Q 1678 3084 1418 2786 
Q 1159 2488 1159 1978 
L 1159 0 
L 581 0 
L 581 3500 
L 1159 3500 
L 1159 2956 
Q 1356 3278 1631 3431 
Q 1906 3584 2284 3584 
Q 2666 3584 2933 3390 
Q 3200 3197 3328 2828 
z
" id="DejaVuSans-6d" transform="scale(0.015625)"/>
      <path d="M 1172 4494 
L 1172 3500 
L 2356 3500 
L 2356 3053 
L 1172 3053 
L 1172 1153 
Q 1172 725 1289 603 
Q 1406 481 1766 481 
L 2356 481 
L 2356 0 
L 1766 0 
Q 1100 0 847 248 
Q 594 497 594 1153 
L 594 3053 
L 172 3053 
L 172 3500 
L 594 3500 
L 594 4494 
L 1172 4494 
z
" id="DejaVuSans-74" transform="scale(0.015625)"/>
     </defs>
     <use xlink:href="#DejaVuSans-54"/>
     <use x="44.083984" xlink:href="#DejaVuSans-6f"/>
     <use x="105.265625" xlink:href="#DejaVuSans-6c"/>
     <use x="133.048828" xlink:href="#DejaVuSans-65"/>
     <use x="194.572266" xlink:href="#DejaVuSans-72"/>
     <use x="235.685547" xlink:href="#DejaVuSans-61"/>
     <use x="296.964844" xlink:href="#DejaVuSans-6e"/>
     <use x="360.34375" xlink:href="#DejaVuSans-63"/>
     <use x="415.324219" xlink:href="#DejaVuSans-65"/>
     <use x="476.847656" xlink:href="#DejaVuSans-20"/>
     <use x="508.634766" xlink:href="#DejaVuSans-41"/>
     <use x="577.042969" xlink:href="#DejaVuSans-6e"/>
     <use x="640.421875" xlink:href="#DejaVuSans-61"/>
     <use x="701.701172" xlink:href="#DejaVuSans-6c"/>
     <use x="729.484375" xlink:href="#DejaVuSans-79"/>
     <use x="788.664062" xlink:href="#DejaVuSans-73"/>
     <use x="840.763672" xlink:href="#DejaVuSans-69"/>
     <use x="868.546875" xlink:href="#DejaVuSans-73"/>
     <use x="920.646484" xlink:href="#DejaVuSans-20"/>
     <use x="952.433594" xlink:href="#DejaVuSans-6f"/>
     <use x="1013.615234" xlink:href="#DejaVuSans-66"/>
     <use x="1048.820312" xlink:href="#DejaVuSans-20"/>
     <use x="1080.607422" xlink:href="#DejaVuSans-63"/>
     <use x="1135.587891" xlink:href="#DejaVuSans-6d"/>
     <use x="1233" xlink:href="#DejaVuSans-72"/>
     <use x="1272.363281" xlink:href="#DejaVuSans-72"/>
     <use x="1304.351562" xlink:href="#DejaVuSans-2e"/>
     <use x="1336.138672" xlink:href="#DejaVuSans-6e"/>
     <use x="1399.517578" xlink:href="#DejaVuSans-65"/>
     <use x="1461.041016" xlink:href="#DejaVuSans-74"/>
    </g>
   </g>
   <g id="legend_1">
    <g id="patch_7">
     <path d="M 50.78125 44.99625 
L 139.092187 44.99625 
Q 141.092187 44.99625 141.092187 42.99625 
L 141.092187 29.318125 
Q 141.092187 27.318125 139.092187 27.318125 
L 50.78125 27.318125 
Q 48.78125 27.318125 48.78125 29.318125 
L 48.78125 42.99625 
Q 48.78125 44.99625 50.78125 44.99625 
z
" style="fill:#ffffff;opacity:0.8;stroke:#cccccc;stroke-linejoin:miter;"/>
    </g>
    <g id="line2d_31"/>
    <g id="line2d_32">
     <g>
      <use style="fill:#ff0000;stroke:#ff0000;" x="62.78125" xlink:href="#md7528be52b" y="35.416563"/>
     </g>
    </g>
    <g id="text_18">
     <!-- Worst Case -->
     <g transform="translate(80.78125 38.916563)scale(0.1 -0.1)">
      <defs>
       <path d="M 213 4666 
L 850 4666 
L 1831 722 
L 2809 4666 
L 3519 4666 
L 4500 722 
L 5478 4666 
L 6119 4666 
L 4947 0 
L 4153 0 
L 3169 4050 
L 2175 0 
L 1381 0 
L 213 4666 
z
" id="DejaVuSans-57" transform="scale(0.015625)"/>
      </defs>
      <use xlink:href="#DejaVuSans-57"/>
      <use x="93.001953" xlink:href="#DejaVuSans-6f"/>
      <use x="154.183594" xlink:href="#DejaVuSans-72"/>
      <use x="195.296875" xlink:href="#DejaVuSans-73"/>
      <use x="247.396484" xlink:href="#DejaVuSans-74"/>
      <use x="286.605469" xlink:href="#DejaVuSans-20"/>
      <use x="318.392578" xlink:href="#DejaVuSans-43"/>
      <use x="388.216797" xlink:href="#DejaVuSans-61"/>
      <use x="449.496094" xlink:href="#DejaVuSans-73"/>
      <use x="501.595703" xlink:href="#DejaVuSans-65"/>
     </g>
    </g>
   </g>
  </g>
 </g>
 <defs>
  <clipPath id="pe8fda7d981">
   <rect height="343.1736" width="572.508" x="43.78125" y="22.318125"/>
  </clipPath>
 </defs>
</svg>
